<?xml version="1.0" encoding="utf-8"?>
<!-- Generator: Adobe Illustrator 24.3.0, SVG Export Plug-In . SVG Version: 6.00 Build 0)  -->
<svg version="1.1" id="圖層_1" xmlns="http://www.w3.org/2000/svg" xmlns:xlink="http://www.w3.org/1999/xlink" x="0px" y="0px"
	 viewBox="0 0 1137 1280" style="enable-background:new 0 0 1137 1280;" xml:space="preserve">
<style type="text/css">
	.st0{fill:none;}
</style>
<g>
	<path className="st0" d="M382,956.9c1-2,2.2-5.9,2.6-8.7c0.4-2.9,0.4-5.2,0.1-5.2c-1.4,0-4.7,9.6-4.7,13.4l0.1,4.1L382,956.9z"/>
	<path className="st0" d="M432,662.9c0-5.5,0.1-5.7,3.1-6.3c1.7-0.3,4.4-0.6,5.9-0.6c2.4,0,2.6,0.3,2.2,3.1c-0.4,2.9-0.3,3,2.9,2.7
		l3.4-0.3l-0.2-38.5c0-21.2-0.4-41.5-0.8-45.1l-0.7-6.7l4.1-3.3l4.1-3.2v-10.8v-10.8l-5.7-1.1c-6.8-1.4-17.2-5.9-19.2-8.3
		c-2.6-3.2-3.2-1.8-2.5,6c0.5,5.6,1.2,8.4,2.6,9.9c1.7,1.9,1.9,3.4,1.5,15c-0.3,9.8-0.9,14.2-2.4,18.4c-1.7,4.5-2.3,9.7-3.2,29
		c-0.6,12.9-1.1,31.4-1.1,41.2v17.6l3-1.1C431.8,668.6,432,668.3,432,662.9z"/>
	<path className="st0" d="M389,654.4c0.7-0.7,0.9-10.7,0.8-28c-0.2-20.2-0.5-24.8-1-18.4C387.6,621.1,387.8,655.6,389,654.4z"/>
	<path className="st0" d="M389.1,450.2c0.2-2.3,0.3-4.2,0.1-4.2c-0.7,0-1.3,3.1-1,5.7C388.5,454,388.7,453.7,389.1,450.2z"/>
	<path className="st0" d="M413.5,1011c0.6,0,1.7,1.1,2.3,2.5c1.4,3,0.8,2.9,10.1,1c6.2-1.3,8.3-1.4,12.5-0.4c2.8,0.7,5.7,1.7,6.4,2.2
		c0.8,0.6,1.6,0.7,2.2,0.1c1.1-1.2,1.7-155.5,0.5-157.4c-0.5-0.8-1.1-7.3-1.5-14.3l-0.5-12.9l-6-1.9c-3.3-1-6.3-1.9-6.7-1.9
		c-0.5,0-0.8,8.4-0.9,18.7c-0.1,23.9-0.8,26.7-7.3,30.5c-2.7,1.6-7.2,3.5-10,4.2c-4.5,1.2-5.1,1.7-5.9,4.7c-0.4,1.9-1.1,29.8-1.4,62
		l-0.6,58.6l2.8,2.1C411,1010,412.8,1011,413.5,1011z"/>
	<path className="st0" d="M946.9,383.2c-2.6-0.3-2.6-0.3-1.8,4.5c0.5,2.6,1.3,8.5,1.9,13c0.5,4.5,1.4,9.3,2,10.7c0.5,1.4,1.5,7.2,2.1,13
		c1.2,10,2.2,13.7,3.3,12.5c0.6-0.6-3.1-44.8-4.2-49.9C949.6,384.2,949,383.4,946.9,383.2z"/>
	<path className="st0" d="M999.5,439.8c0.5-0.6,8.5-51.7,8.5-54.2c0-2.9,0.9-2.8-18.7-1.9l-7.3,0.4v26.7v26.8l8.6,1.2
		C995.4,439.5,999.3,440,999.5,439.8z"/>
	<path className="st0" d="M487.6,385.5c1.1,6.8,4.3,9.2,16.2,11.9c5.8,1.3,6.2,1.3,6.2-0.4c0-1-0.6-3.3-1.4-5.2
		c-1.2-2.7-2.4-3.7-5.8-4.8c-2.4-0.8-6.8-3.6-9.9-6.2c-3.1-2.6-6-4.8-6.4-4.8c-0.3,0-0.4,1.2-0.1,2.7
		C486.7,380.3,487.2,383.3,487.6,385.5z"/>
	<path className="st0" d="M456.2,460.7c0.2-3.1,0-5.7-0.4-5.7c-0.5,0-0.7,3.7-0.7,8.2C455.3,471.8,455.7,470.8,456.2,460.7z"/>
	<path className="st0" d="M278.8,411c2.3,0,4.1-2.9,4.4-7c0.3-4.3,0.2-4.5-2.4-4.8c-2.8-0.3-2.8-0.3-2.8,5.7
		C278,408.3,278.4,411,278.8,411z"/>
	<path className="st0" d="M203.8,765c-1.5-2.4-2.2-2.5-3.8-0.5c-1,1.2-1,1.8,0,3C202.6,770.7,206,768.5,203.8,765z"/>
	<path className="st0" d="M373.1,833.4l4.6,0.7l0.7-26.7c0.4-14.7,0.5-26.7,0.4-26.8c-0.2,0-2.2,1.8-4.5,4.1c-4.2,4.1-4.3,4.4-4.3,10.7
		c0,3.5-0.5,13.3-1.1,21.6c-0.6,8.4-0.9,15.3-0.7,15.5C368.4,832.6,370.6,833,373.1,833.4z"/>
	<path className="st0" d="M260.7,543.7c1.2,0.4,2-5.9,2.8-23.7l0.6-12.5l-4.5-2.1l-4.6-2.1v4.9c0,5.3,2.6,27.4,3.9,32.2
		C259.3,542,260.1,543.5,260.7,543.7z"/>
	<path className="st0" d="M344,662.7c0,0.2,0.9,0.3,2,0.3c1.9,0,2-0.7,2-17.8c0-9.7,0.3-24.8,0.7-33.5l0.6-15.7h-5
		c-2.7,0-5.3,0.3-5.6,0.7c-0.4,0.3-0.7,7.3-0.7,15.4c0,11.8,0.6,18.4,3,32.6C342.7,654.5,344,662.6,344,662.7z"/>
	<path d="M31.7,1204.5H1114c4.3,0,7.9,3.2,8.6,7.3c-0.1-3.2-0.2-7-0.4-11.7c-0.9-22.6-1.2-25.3-3.5-31.6c-1.4-3.8-3.4-7.4-4.4-8
		s-4.2-1.3-7.2-1.6l-5.5-0.5l-1.1-5.5c-0.6-3-2.3-7.4-3.9-9.7c-2.6-3.9-2.9-5.2-3.7-18.5c-0.5-7.9-1.3-15.9-1.9-17.8
		c-0.6-1.9-2.9-10.3-5-18.6c-3.2-12.4-3.9-16.6-3.7-23c0.1-4.4-0.2-8.5-0.6-9.2c-0.5-0.6-2.6-1.2-4.8-1.2c-2.8,0-3.9-0.4-3.9-1.5
		c0-0.8-1.3-2.1-2.9-3c-1.6-0.8-3.2-2.4-3.6-3.4c-0.6-2.1-8.9-8.1-11.1-8.1c-0.7,0-1.4-0.5-1.6-1c-0.2-0.6-3-1.5-6.3-2
		c-4.6-0.7-6.4-0.7-8,0.4c-1.3,0.8-3.9,1.2-7,0.9c-2.8-0.2-7.5-0.3-10.6-0.3c-4.8,0.1-5.6-0.2-6.6-2.2c-1.3-2.6-2.9-112-1.8-120.4
		c0.6-4.5,1-5.1,4.4-6.5c3.4-1.5,3.9-2.1,4.4-6.4c0.4-2.6,0.7-8.2,0.7-12.4c0-4.5,1.4-15.4,3.4-26.1c3.1-16.7,3.3-18.7,1.9-20.2
		c-1.4-1.5-1.1-3.3,3-18.5c9.1-33.4,11.3-43.8,9.7-44.8c-0.5-0.3-0.7-1.7-0.4-2.9c0.6-2.6-1.2-10.6-2.5-10.6
		c-2.9,0-13.1,12.7-13.1,16.2c0,0.8-0.6,2.8-1.4,4.4c-0.8,1.6-4,12.8-7,24.9c-7,27.9-6.6,26.5-8.1,26.5c-0.9,0-1.4-5-1.7-20.7
		c-0.4-19.8-0.3-21.1,1.9-27.5l2.3-6.6l-1-78.9c-0.6-43.3-1.5-101.2-2-128.6c-1.4-67.6-1.4-66.7,0.6-66.7c0.9,0,5.1-1.2,9.3-2.6
		c5.9-2,8.2-3.4,10.4-6.2c2.7-3.5,2.7-3.6,2.7-19.6c-0.1-8.9-0.5-17.9-1-20.1c-2.5-11.5-2.7-11.8-8.4-15.7c-0.6-0.4-0.5-2.8,0.3-6.5
		c0.6-3.2,3.4-17.9,6.1-32.7l5-27l5.5-4.9l5.5-4.9V360v-8.8l-3.8-3.4c-2.2-2-5.8-4.4-8.2-5.4l-4.3-1.9l0.5-21.2
		c0.6-24.9,0-29.6-4.2-35.7c-2.2-3.2-2.9-5.2-2.5-6.9c1-3.9-2.2-14.4-8-26.7c-5.5-11.4-5.5-11.7-9.6-36.5
		c-2.2-13.8-5.8-35.1-7.9-47.5c-2.2-12.4-4.4-26.3-5-31c-0.7-4.7-2.2-13.8-3.6-20.3c-1.7-8.4-2.1-12.4-1.4-13.7
		c1.7-3.2,1.1-6.7-2.1-11.9c-2.7-4.3-3.4-4.9-4.7-3.8c-3.1,2.6-4.6,8.1-4.7,18.2c-0.1,6.5-2,21.7-5.3,43
		c-2.8,18.1-6.8,45.6-8.7,60.9c-2,15.4-4,28.7-4.6,29.7c-0.5,1-0.9,2.5-0.9,3.4c0,0.9-2.5,6.7-5.6,12.9c-4.9,9.8-5.7,12.5-6.5,19.7
		c-0.6,5.9-1.4,9-2.8,10.8c-5.5,6.8-5.6,7.9-6.4,47.6l-0.2,11l-4.1,1.3c-2.2,0.7-5.8,3.1-8,5.3c-3.9,4-3.9,4-3.8,11.8
		c0.1,5.7,0.7,9.1,2.2,12.2c1.3,3,3.7,15.4,7.3,38.1c4.5,28.5,5.1,34.1,4,36.1c-0.9,1.7-1.2,8.6-0.9,27.5l0.3,25.2l2.5,2.3
		c2.5,2.4,12.4,5.7,17.1,5.7c4.9,0,5.4,1.1,6.1,14.7c1.4,25.3,2.8,88.4,2,94.1c-0.9,6.6,0.3,175.2,1.3,190.9
		c0.5,6.3,0.4,10.3-0.2,10.3c-0.5,0-1.9-6.2-3.1-13.7c-1.2-7.6-3.3-20.8-4.6-29.3c-1.4-8.5-4.3-26.3-6.6-39.5s-4.3-27.8-4.4-32.5
		c-0.2-7.6-0.7-9.2-3.7-14.8c-1.9-3.4-3.7-6.2-4-6.2c-0.4,0-2.3,3.2-4.3,7c-2.8,5.3-3.6,7.8-3.1,9.9c0.3,1.5-0.1,7.5-1,13.2
		c-0.9,5.7-3.6,25.2-6,43.4c-2.4,18.1-4.7,34.9-5,37.3l-0.6,4.2l-2.8-2c-3-2-27.7-6.5-69.8-12.6l-19.3-2.8l-0.1-11.5
		c-0.1-21.5,0-20.6-3.4-20.6c-1.6,0-3.4-0.5-4-1.2c-0.6-0.6-4.7-1.3-9.5-1.5l-8.5-0.3l-0.9,3.7c-0.8,3-1.4,3.8-3.2,3.8
		c-1.3,0-3.2,1-4.4,2.2c-1.7,1.8-2,3.5-2,10.6c0,6.2-0.3,8.3-1.2,7.9c-1-0.3-1.3-4.1-1.3-14.7l0.1-14.3l-10.6,0.7
		c-6.3,0.4-10.9,1.2-11.5,1.9c-0.5,0.7-2.5,1.1-4.4,0.9c-1.8-0.2-4.6,0.2-6.2,0.8l-2.9,1.2V760c0,9.8-0.2,10.8-1.7,10.4
		c-1-0.2-14.6-2.2-30.2-4.4c-15.6-2.1-28.6-4.1-28.8-4.4c-0.3-0.3-1.3-7.6-2.3-16.3s-3.4-29.3-5.4-45.8s-3.7-31.1-3.9-32.5
		c-0.2-2.2,0.3-2.6,4.7-3.7c2.7-0.7,5.3-1.6,5.8-2.1s1.2-5.2,1.5-10.5c0.5-8.8,0.4-9.6-1.4-10.5c-1.7-1-1.9-1.9-1.5-6.4
		c0.2-3.1,1.2-6.2,2.2-7.3c3.1-3.5,5.2-8.6,4.6-11.1c-0.4-1.3-1.9-3.2-3.4-4.1c-3.9-2.6-6-5.3-6.7-9.1c-0.5-2.9-1-3.3-3.3-3
		c-2.1,0.2-3,1.1-3.8,3.6c-0.6,1.9-1.5,3.7-2.1,4c-0.5,0.4-1.4,1.5-2,2.6c-0.8,1.5-1.1,0.9-1.7-3.5c-1-7.5-4.6-39.1-4.6-40.7
		c0-1.8-1.8-1.5-5,0.8l-2.8,2l-0.7-3.6c-0.3-2-0.4-10.2,0-18.3c0.6-14.5-0.7-66.6-1.7-67.6c-0.3-0.3-1.3-0.3-2.2,0.1
		c-1.3,0.5-1.6,1.3-1.1,3.1c0.6,2.4,2,65.8,1.9,83.8c-0.1,9.6-0.9,14.4-2.8,16c-0.7,0.5-1.8,3.6-2.5,6.8c-0.7,3.3-2.1,6.7-3.2,7.8
		c-1,1-1.9,3.1-1.9,4.6c0,1.6-0.5,3.5-1,4.3c-0.7,1-1-0.9-1-6.2c0-4.2-0.4-8.8-0.9-10.1c-0.7-1.7-0.5-3.9,0.3-6.8
		c2.8-9.2-2.1-18-11.7-21.2c-3.8-1.2-4-1.6-5.7-8.2c-2.5-9.7-4.6-15.1-8-21.2c-2.5-4.3-3-6.4-3-11.7c0-8.6-1.7-16-4.1-18.2
		c-1.7-1.6-1.9-3.2-1.9-19.5c0-16.1,0.2-18.2,2-21.1c2.8-4.6,2.5-8.4-1.5-21.2c-5.5-17.5-12.7-26.5-27.1-33.5
		c-7.1-3.5-7.2-3.8-5.8-14.4c0.6-4.5,0.9-4.8,6-7.1c6.3-2.9,14.3-10.5,17.4-16.5c3-6,8.8-25.5,10.2-34.5c0.8-5.6,0.9-8.8,0-12.3
		c-2-8.8-7.3-21.3-12.2-28.6c-4.9-7.3-7-9.6-17.3-18.8c-3.1-2.9-6.6-6.6-7.6-8.3c-2.7-4.4-5.3-16.7-11.1-52.1
		c-5.2-31.7-8.2-48.2-12.5-68.6c-2.7-12.3-3.2-18.9-1.4-18.9c2,0,8.9-6.4,11.8-10.9c7.8-12.4,6.1-26.2-4.5-38.7
		c-3.9-4.6-5.5-5.7-10.3-7c-11-3-10.1-1.5-10.1-17V38.8l2.3,0.5c1.2,0.3,5.1,0.9,8.6,1.3c5.8,0.6,6.3,0.5,5.9-1.2
		c-0.2-1.5-2.1-2.3-8.5-3.8l-8.2-1.9l-0.3-8.1c-0.3-6.8-0.6-8.1-2-8.4c-1.6-0.3-1.8,0.6-1.8,7.8c0,7.3-0.2,8.1-1.7,7.6
		c-1-0.2-4.2-0.8-7-1.1c-4.8-0.6-5.3-0.5-5.3,1.3c0,1.6,1.1,2.2,6.4,3.2c7.6,1.4,7.6,1.4,7.5,14.5c0,13.1-0.9,16.7-3.9,17.5
		c-16.9,4.6-28.1,23.3-22.8,38.2c1,2.8,2.7,6.1,3.8,7.3c1.1,1.2,2,2.6,2,3.2c0,1.8,6.2,7.5,9.7,9c3.8,1.5,3.9,2.2,2.3,13.5
		c-2.3,16.9-14,113-14.6,120.3c-0.9,10.3-4.5,18.1-9.9,21c-2,1-5.7,4.1-8.1,6.8c-2.5,2.8-4.6,4.8-4.7,4.6c-0.2-0.2-1.4-2.1-2.7-4.1
		c-1.4-2.1-2.8-3.8-3.2-3.8c-1.4,0-6.8,8.9-6.8,11.2c0,1.3,0.6,3.3,1.4,4.4c1.3,1.8,1.2,3.4-0.4,12.5c-1,5.7-2.3,16.2-3,23.4
		c-2.8,30.1-6,55.5-7.2,57.4c-0.7,1.2-4.8,4-9.1,6.2c-14.1,7.3-17.7,11.9-19.7,25.4c-0.6,4.4-1.6,10.1-2.1,12.7
		c-0.9,3.7-0.8,5.1,0.5,7c1.3,2,1.5,7.3,1.3,38.1c-0.1,19.6-0.4,35.7-0.8,35.7c-0.3,0-0.9-7.5-1.3-16.8c-0.4-9.2-1.5-26.4-2.6-38.2
		c-2.4-26.5-2.5-31-0.3-35.6c1.7-3.5,1.7-3.7-0.8-8.2c-1.4-2.5-3-4.7-3.6-4.9c-0.5-0.2-2.3,1.5-3.8,3.7c-2.6,3.7-2.7,4.4-1.7,7.4
		c1.7,4.7,1.6,6.1-2.8,30.7c-2.2,12.3-4,23.9-4,25.6c0,1.8-0.4,3.3-1,3.3c-0.5,0-1-2.1-1-4.8c0-2.6-1-16.3-2.2-30.5
		c-1.8-21.2-2-26.3-1-29.2c1.2-3,1-3.9-1.3-8.4c-1.4-2.8-2.7-5.1-3-5.1c-0.2,0-2,2.1-3.9,4.6c-3.3,4.3-3.4,4.8-2.2,7.3
		c1,1.9,1.1,4.8,0.5,11.4c-1.1,11.6-1.9,12.9-4.8,7.7c-1.2-2.2-2.6-4-3-4c-0.9,0-6.1,7.8-6.1,9.3c0,0.6,0.5,2.5,1.1,4.2
		c1.2,3.3,0.4,11.4-1,9.9c-0.4-0.5-1.3-6.5-2-13.4c-0.7-6.9-2.3-20.2-3.7-29.5c-1.3-9.4-6-43.6-10.4-76.1s-8.4-61.1-8.9-63.5
		c-0.6-2.4-1.1-8.1-1.1-12.6v-8.2l5.7-3.8c6.9-4.6,9.8-8.6,11.3-15.9c1.9-8.9-1.1-15.1-13.2-27.4l-6.3-6.4l-0.3-17.6
		c-0.2-9.6,0.1-25.4,0.6-35c1-18.3,0.7-21.3-2-18.7c-1.2,1.3-1.7,6.7-2.4,30.4c-0.4,15.8-0.7,31.4-0.6,34.6l0.3,5.8l-7.9,7.8
		c-4.4,4.3-9.2,9.9-10.7,12.5c-2.5,4.2-2.7,5.4-2.3,11.4c0.6,8.7,3.5,14.3,9.7,18.7c2.7,2,5.2,4.3,5.5,5.1
		c0.3,0.9-0.9,11.1-2.8,22.8c-1.9,11.6-5.1,31.2-7.1,43.6c-4.6,28.6-4.1,27.2-8.2,25.5c-2-0.8-3.4-2.3-3.7-3.7
		c-0.3-1.3-3.5-22.3-7.1-46.8c-3.7-24.5-8.2-54.6-10.1-67c-1.9-12.4-4.4-29.5-5.5-38c-1.1-8.5-2.6-17.5-3.4-20
		c-0.8-2.4-1.2-4.7-0.9-5c0.3-0.2,3.1-0.7,6.1-1l5.6-0.5l1.3-5c0.7-2.8,1.3-5.1,1.4-5.3c0-0.1-2.7-0.2-6.1-0.2c-9.1,0-9.9-0.7-9.9-9
		c0-6.7,0.1-6.9,3.4-8.9c3.7-2.3,5.2-4.9,3.7-6.4c-0.7-0.7-1.9-0.4-3.6,0.7c-3.6,2.3-4.5,1.3-4.5-5c0-4.7-0.2-5.4-2-5.4
		s-2,0.7-2,7.9c0,6.1-0.3,8-1.5,8.5c-2.1,0.8-1.9,4.6,0.3,4.6c1.4,0,1.7,0.9,1.7,4.7c0,2.7-0.4,5.3-0.7,5.9
		c-0.4,0.6-3.5,1.4-6.8,1.6s-6.2,0.6-6.5,0.9c-0.2,0.3-0.2,2.8,0.2,5.7l0.6,5.1l6.1,0.3c6.1,0.3,6.1,0.3,6,3.3
		c-0.1,1.6-0.9,6.6-1.8,11c-0.8,4.4-6.5,42.4-12.6,84.5c-6.1,42.1-11.5,77.9-12.1,79.6c-0.6,2.1-2.1,3.5-4.7,4.7
		c-6.7,3-17.2,16.2-17.2,21.7c0,0.9-1.4,3.7-3,6.3c-1.7,2.6-3,5.3-3,6c0,2.5,4.7,6.5,10.3,8.7l5.8,2.3l-0.3,11.6
		c-0.2,9.4-0.6,11.6-1.8,11.6c-3.4,0-4,4.4-3.8,25.5c0.3,20,0.4,20.6,2.8,24.2c1.4,2,4,4.4,5.8,5.2c4.2,2.1,5.3,5.3,5,14.5l-0.3,7.6
		l-4,0.5l-4,0.5l-0.8,6c-0.4,3.3-1.9,13-3.2,21.5c-2.7,16.4-8.4,53.9-11.1,72.7c-0.9,6.2-2,11.3-2.5,11.3s-0.9-1.2-0.9-2.8
		c0-1.5-0.9-8.8-1.9-16.2c-6.3-43.5-8.2-58.5-7.9-64.9c0.2-7.9-0.6-9.4-4.8-8.9c-3.2,0.3-3.3,0.7-5.4,17.3
		c-1.3,10.4-4.7,32-15.6,97.6l-8.8,53.6l-8.2,0.6c-12.9,0.8-21.2,4.4-29.9,13.2c-9.5,9.5-12.8,17.4-12.9,31.4
		c-0.1,12.5,2.6,20.9,9.1,28.1c2.5,2.8,4.3,5.3,4,5.7c-0.8,0.7-28.8-3.4-39.7-5.9c-4.7-1-12.2-2.2-16.6-2.5
		c-7.4-0.5-8.3-0.4-10.3,1.6c-2.8,2.8-2.8,7.5,0.1,9.5c1.3,0.9,4.3,1.6,7.1,1.6c2.7,0,4.7,0.3,4.5,0.7c-2.7,6.2-9.4,19.2-10.5,20.4
		c-0.7,0.9-2.7,4.4-4.3,7.8c-1.7,3.4-5.5,9.8-8.6,14.1c-3,4.3-6.2,10-7.1,12.7c-0.9,2.6-3.4,7.3-5.5,10.3c-2.1,3-3.8,5.8-3.8,6.1
		c0,0.4-1.6,3.1-3.6,6c-2,3-5,8.1-6.6,11.4c-1.7,3.3-4.3,7.8-5.8,10s-4.7,7.8-7,12.5c-2.4,4.7-4.9,9.2-5.6,10
		c-2.6,3.1-7.4,13-7.4,15.4c0,4.1,2.2,4.8,17.2,5.8c7.8,0.5,14.3,1,14.4,1.1c0.1,0.1-0.5,3.1-1.3,6.7c-1.8,8.7-1,14.3,2.3,15.9
		c1.4,0.6,3.2,1.1,4,1.1c3.4,0,3.6,4.4,2.5,56c-1.6,72.4-4.1,160.6-4.7,166.7c-0.3,3.1-1,5.3-1.7,5.3s-2.9,0.5-5,1.1
		c-2.9,0.8-4.8,2.4-8.2,7.2c-6.5,8.9-8.7,15.3-9,26.7c-0.2,5.2-0.6,11.7-0.9,14.5c-0.4,2.8-0.3,4.9,0.4,6.7v-4.9
		C23,1208.4,26.9,1204.5,31.7,1204.5z M982,410.8v-26.7l7.3-0.4c19.6-0.9,18.7-1,18.7,1.9c0,2.5-8,53.6-8.5,54.2
		c-0.2,0.2-4.1-0.3-8.9-1l-8.6-1.2V410.8z M954.4,436.9c-1.1,1.2-2.1-2.5-3.3-12.5c-0.6-5.8-1.6-11.6-2.1-13
		c-0.6-1.4-1.5-6.2-2-10.7c-0.6-4.5-1.4-10.4-1.9-13c-0.8-4.8-0.8-4.8,1.8-4.5c2.1,0.2,2.7,1,3.3,3.8
		C951.3,392.1,955,436.3,954.4,436.9z M486.5,376c0.4,0,3.3,2.2,6.4,4.8c3.1,2.6,7.5,5.4,9.9,6.2c3.4,1.1,4.6,2.1,5.8,4.8
		c0.8,1.9,1.4,4.2,1.4,5.2c0,1.7-0.4,1.7-6.2,0.4c-11.9-2.7-15.1-5.1-16.2-11.9c-0.4-2.2-0.9-5.2-1.2-6.8
		C486.1,377.2,486.2,376,486.5,376z M455.8,455c0.4,0,0.6,2.6,0.4,5.7c-0.5,10.1-0.9,11.1-1.1,2.5C455.1,458.7,455.3,455,455.8,455z
		 M426,653.2c0-9.8,0.5-28.3,1.1-41.2c0.9-19.3,1.5-24.5,3.2-29c1.5-4.2,2.1-8.6,2.4-18.4c0.4-11.6,0.2-13.1-1.5-15
		c-1.4-1.5-2.1-4.3-2.6-9.9c-0.7-7.8-0.1-9.2,2.5-6c2,2.4,12.4,6.9,19.2,8.3l5.7,1.1v10.8v10.8l-4.1,3.2l-4.1,3.3l0.7,6.7
		c0.4,3.6,0.8,23.9,0.8,45.1l0.2,38.5l-3.4,0.3c-3.2,0.3-3.3,0.2-2.9-2.7c0.4-2.8,0.2-3.1-2.2-3.1c-1.5,0-4.2,0.3-5.9,0.6
		c-3,0.6-3.1,0.8-3.1,6.3c0,5.4-0.2,5.7-3,6.8l-3,1.1V653.2z M407.3,948.1c0.3-32.2,1-60.1,1.4-62c0.8-3,1.4-3.5,5.9-4.7
		c2.8-0.7,7.3-2.6,10-4.2c6.5-3.8,7.2-6.6,7.3-30.5c0.1-10.3,0.4-18.7,0.9-18.7c0.4,0,3.4,0.9,6.7,1.9l6,1.9l0.5,12.9
		c0.4,7,1,13.5,1.5,14.3c1.2,1.9,0.6,156.2-0.5,157.4c-0.6,0.6-1.4,0.5-2.2-0.1c-0.7-0.5-3.6-1.5-6.4-2.2c-4.2-1-6.3-0.9-12.5,0.4
		c-9.3,1.9-8.7,2-10.1-1c-0.6-1.4-1.7-2.5-2.3-2.5c-0.7,0-2.5-1-4-2.2l-2.8-2.1L407.3,948.1z M389.2,446c0.2,0,0.1,1.9-0.1,4.2
		c-0.4,3.5-0.6,3.8-0.9,1.5C387.9,449.1,388.5,446,389.2,446z M388.8,608c0.5-6.4,0.8-1.8,1,18.4c0.1,17.3-0.1,27.3-0.8,28
		C387.8,655.6,387.6,621.1,388.8,608z M384.7,943c0.3,0,0.3,2.3-0.1,5.2c-0.4,2.8-1.6,6.7-2.6,8.7l-1.9,3.6l-0.1-4.1
		C380,952.6,383.3,943,384.7,943z M368.9,817c0.6-8.3,1.1-18.1,1.1-21.6c0-6.3,0.1-6.6,4.3-10.7c2.3-2.3,4.3-4.1,4.5-4.1
		c0.1,0.1,0,12.1-0.4,26.8l-0.7,26.7l-4.6-0.7c-2.5-0.4-4.7-0.8-4.9-0.9C368,832.3,368.3,825.4,368.9,817z M338.7,596.7
		c0.3-0.4,2.9-0.7,5.6-0.7h5l-0.6,15.7c-0.4,8.7-0.7,23.8-0.7,33.5c0,17.1-0.1,17.8-2,17.8c-1.1,0-2-0.1-2-0.3c0-0.1-1.3-8.2-3-18
		c-2.4-14.2-3-20.8-3-32.6C338,604,338.3,597,338.7,596.7z M280.8,399.2c2.6,0.3,2.7,0.5,2.4,4.8c-0.3,4.1-2.1,7-4.4,7
		c-0.4,0-0.8-2.7-0.8-6.1C278,398.9,278,398.9,280.8,399.2z M255,503.3l4.6,2.1l4.5,2.1l-0.6,12.5c-0.8,17.8-1.6,24.1-2.8,23.7
		c-0.6-0.2-1.4-1.7-1.8-3.3c-1.3-4.8-3.9-26.9-3.9-32.2V503.3z M200,764.5c1.6-2,2.3-1.9,3.8,0.5c2.2,3.5-1.2,5.7-3.8,2.5
		C199,766.3,199,765.7,200,764.5z"/>
	<path d="M1122.6,1211.9c0.3,11.3,0,13.9-1,16c-2.1,4-9.8,10.1-12.8,10.1c-4.1,0-17.6,4.9-27.9,10.1c-2.3,1.1-7.8,2.2-15.5,2.9
		c-6.5,0.6-16.3,1.7-21.7,2.5c-9.2,1.3-10.4,1.2-17.5-0.6c-14-3.6-29.2-4.9-46.7-4c-3.8,0.2-15.7,0-26.3-0.4l-19.3-0.8l-3.2,3
		l-3.2,3l-14.7-0.6c-13.1-0.5-14.9-0.8-17-2.7c-1.3-1.2-3.6-2.4-5.3-2.6c-5.6-0.9-20-5-25.5-7.3c-5.7-2.4-30.1-6.5-42.5-7.2
		c-28.6-1.6-38.4-2.5-48.9-4.8c-6.5-1.4-19.1-3.2-27.9-4c-14.4-1.2-17-1.2-24.2,0.2c-7.8,1.5-9.1,1.5-25.3-0.6
		c-9.5-1.2-20.4-3-24.4-4c-10.4-2.7-32.1-4.5-35-3c-3.9,2.1-35.8-1.1-39.8-4c-7.5-5.4-7.2-5.3-35.9-4.6c-23,0.6-28.5,0.5-40.6-1.1
		c-7.7-1.1-17.7-1.9-22.2-1.9c-7.6,0-8.4,0.2-11.1,2.8c-3,2.9-3.1,2.9-18.8,3.4c-13.4,0.5-16.9,0.3-22.4-1.2
		c-14.6-4.1-56.6-5.6-81.3-3c-9.2,0.9-18,1.5-19.5,1.2c-1.5-0.3-6.3,0.3-10.7,1.3c-23.6,5.4-34.9,6-54.9,2.9
		c-8.7-1.4-38.3-0.5-47.6,1.4c-3.6,0.8-11,3.1-16.5,5.1c-10.3,3.9-15.4,4.8-38.5,6.5c-13.7,1.1-16.6,1.8-31.2,7.5
		c-6.2,2.5-13.3,4.9-15.6,5.5c-2.4,0.5-5.4,1.9-6.6,3c-1.2,1.2-2.8,2.1-3.4,2.1c-0.7,0-3.8,1.1-7,2.4c-3.1,1.3-10.4,3.4-16.2,4.6
		c-16.7,3.5-27.8,6.8-30.9,9.1c-2,1.5-4.5,2.2-8.2,2.3l-5.4,0.1l-1.3-4.5c-0.7-2.5-2-6.6-2.8-9.2c-0.9-2.5-1.9-6.8-2.2-9.4
		c-0.7-4.5-1.1-5.1-6.8-9.1c-3.3-2.3-8-5.2-10.4-6.5c-3.3-1.7-5.2-3.4-6-5.6v53.1c0,4.8,3.9,8.7,8.7,8.7H1114c4.8,0,8.7-3.9,8.7-8.7
		v-58C1122.7,1212.8,1122.7,1212.3,1122.6,1211.9z"/>
	<path d="M29,1223.8c2.4,1.3,7.1,4.2,10.4,6.5c5.7,4,6.1,4.6,6.8,9.1c0.3,2.6,1.3,6.9,2.2,9.4c0.8,2.6,2.1,6.7,2.8,9.2l1.3,4.5
		l5.4-0.1c3.7-0.1,6.2-0.8,8.2-2.3c3.1-2.3,14.2-5.6,30.9-9.1c5.8-1.2,13.1-3.3,16.2-4.6c3.2-1.3,6.3-2.4,7-2.4
		c0.6,0,2.2-0.9,3.4-2.1c1.2-1.1,4.2-2.5,6.6-3c2.3-0.6,9.4-3,15.6-5.5c14.6-5.7,17.5-6.4,31.2-7.5c23.1-1.7,28.2-2.6,38.5-6.5
		c5.5-2,12.9-4.3,16.5-5.1c9.3-1.9,38.9-2.8,47.6-1.4c20,3.1,31.3,2.5,54.9-2.9c4.4-1,9.2-1.6,10.7-1.3c1.5,0.3,10.3-0.3,19.5-1.2
		c24.7-2.6,66.7-1.1,81.3,3c5.5,1.5,9,1.7,22.4,1.2c15.7-0.5,15.8-0.5,18.8-3.4c2.7-2.6,3.5-2.8,11.1-2.8c4.5,0,14.5,0.8,22.2,1.9
		c12.1,1.6,17.6,1.7,40.6,1.1c28.7-0.7,28.4-0.8,35.9,4.6c4,2.9,35.9,6.1,39.8,4c2.9-1.5,24.6,0.3,35,3c4,1,14.9,2.8,24.4,4
		c16.2,2.1,17.5,2.1,25.3,0.6c7.2-1.4,9.8-1.4,24.2-0.2c8.8,0.8,21.4,2.6,27.9,4c10.5,2.3,20.3,3.2,48.9,4.8
		c12.4,0.7,36.8,4.8,42.5,7.2c5.5,2.3,19.9,6.4,25.5,7.3c1.7,0.2,4,1.4,5.3,2.6c2.1,1.9,3.9,2.2,17,2.7l14.7,0.6l3.2-3l3.2-3
		l19.3,0.8c10.6,0.4,22.5,0.6,26.3,0.4c17.5-0.9,32.7,0.4,46.7,4c7.1,1.8,8.3,1.9,17.5,0.6c5.4-0.8,15.2-1.9,21.7-2.5
		c7.7-0.7,13.2-1.8,15.5-2.9c10.3-5.2,23.8-10.1,27.9-10.1c3,0,10.7-6.1,12.8-10.1c1-2.1,1.3-4.7,1-16c-0.7-4.2-4.2-7.3-8.6-7.3
		H31.7c-4.8,0-8.7,3.9-8.7,8.7v4.9C23.8,1220.4,25.7,1222.1,29,1223.8z"/>
</g>
</svg>
