<?xml version="1.0" encoding="utf-8"?>
<!-- Generator: Adobe Illustrator 24.3.0, SVG Export Plug-In . SVG Version: 6.00 Build 0)  -->
<svg version="1.1" id="圖層_1" xmlns="http://www.w3.org/2000/svg" xmlns:xlink="http://www.w3.org/1999/xlink" x="0px" y="0px"
	 viewBox="0 0 1280 857" style="enable-background:new 0 0 1280 857;" xml:space="preserve">
<path d="M1280,691.6V620h0c0-16,0-35.8,0-60.6V434h-3.3c-1.7,0-7.2-0.7-12.2-1.5c-4.9-0.8-14-1.5-20-1.5h-11.1l-7.4-4.5
	c-4.1-2.4-7.5-5-7.6-5.7c-0.5-9.3-10.2-21.5-18.8-23.7c-2.5-0.6-4.6-1.5-4.6-2s-0.3-1.6-0.6-2.5c-0.4-1.1,0-1.6,1.5-1.6
	c1.9,0,1.9-0.3-1-6.8c-1.7-3.7-4.2-10.5-5.6-15.2c-3.3-11.1-6.5-17-9.2-17c-1.1,0-5.8,10.7-6.6,15.1c-0.4,1.9-1.7,5.3-2.9,7.5
	c-2.4,4.2-2.8,4.3-13.2,2.9c-5.1-0.7-5.3-1.1-6.3-16.4c-0.8-10.8-1-11.6-3.6-13.8c-1.9-1.7-3.7-2.3-5.8-2.1
	c-2.7,0.3-3.4,0.9-4.7,4.7c-0.8,2.4-2,4.6-2.6,4.8c-1.8,0.6-4.4-2.6-4.4-5.3c0-2.2-0.4-2.4-5.3-2.4c-4.6,0-5.6,0.4-7.9,3
	c-1.4,1.6-3,3-3.6,3c-0.5,0-1.7-1.8-2.7-3.9l-1.7-3.9l-8.7-0.6c-14.4-1.1-14.1-1-14.1-6.5c0-4.1-0.3-4.9-2.5-5.9
	c-1.4-0.7-4.2-1.2-6.1-1.2c-2.9,0-3.8,0.6-5.5,3.5c-1.2,1.9-2.3,3.5-2.5,3.5s-1.5-1.8-2.9-4.1c-2.5-3.9-2.7-4-7.8-3.7
	c-5,0.3-5.2,0.4-5.5,3.5c-0.6,6.3-6.2,6.6-6.2,0.3c0-2.6-0.3-2.8-5.7-3.4c-3.9-0.5-5.9-0.3-6.1,0.4c-0.2,0.6-1.4,2.3-2.6,3.7
	c-2,2.3-2.6,2.5-5.2,1.6l-2.9-1l-0.3-10.9c-0.2-6,0-14.7,0.3-19.3c0.6-7,1-8.4,2.6-8.8c1.4-0.4,1.9-1.4,1.9-3.8c0-2.7-1.1-4.4-5.5-9
	c-4-4-5.9-6.9-6.8-10.2c-0.7-2.6-2-4.9-3.2-5.5c-6.8-3.5-8.4-8.7-6.3-20.8c1.1-6.6,1.6-7.5,3.6-7.8c1.6-0.3,2.1-0.9,1.8-2
	c-0.3-0.9-0.8-2.9-1.2-4.4c-0.3-1.5-1.5-3-2.7-3.4c-1.2-0.4-4.4-3-7.2-5.8c-2.7-2.8-7.7-7.2-11-9.8s-6.9-6.2-7.9-8
	c-1.1-1.8-4.1-5.8-6.6-8.8c-2.6-3-7-8.9-9.8-13.2c-6.3-9.3-18.8-23.1-21.9-24c-1.9-0.5-2.8,0-4.6,2.5c-8.6,11.9-10.7,14.4-13,15.6
	c-1.5,0.8-3,1.2-3.3,0.8c-1.5-1.4-0.8-11.4,1-15.5l1.9-4.2l-3.1-6.2c-3.7-7.6-9.7-14.8-12.2-14.8c-1,0-2.9,1.2-4.3,2.7
	c-1.3,1.6-4.6,5.1-7.2,8c-4.5,5-4.7,5.5-4.1,9.5c1.5,9.8,2.7,42.4,1.8,44.9c-1.1,2.9-4.9,4.3-15.7,5.9c-14.2,2-45.1,0.8-54.2-2.1
	c-3-1-3.3-1.4-3.3-5.3c0-4.1-0.5-4.8-8.8-13.2c-4.9-4.9-13.5-12.9-19.3-17.8c-6.5-5.5-11.4-10.6-13.2-13.6c-1.5-2.6-4.9-6.8-7.7-9.4
	l-4.9-4.6l-4.9,3c-2.7,1.6-9.3,8-14.8,14.1c-9.5,10.6-13.5,13.9-16.9,13.9c-1.9,0-1.9-1.4,0.1-10.2c1.6-7.1,1.5-11.5-0.5-21
	c-1.5-7.1-1.6-26.5-0.1-28.3c0.7-0.9,3.4-2.9,6-4.6c4.7-3,4.8-3.2,3.7-6.3c-0.6-1.7-1.8-3.7-2.8-4.4c-1.5-1-1.6-1.8-0.8-3.9
	c1.5-4.1-1.1-6.3-7.8-6.3H726l-11.7-11.1c-12.4-11.7-28.9-30.4-37.8-42.9c-2.9-4.1-6.7-8.8-8.4-10.4c-4.2-4-4.4-9.5-0.3-12.5
	c5.9-4.5,5.8-4.4,1.8-6.1c-2.1-0.8-4.3-2.6-5-3.8l-1.2-2.3L661.5,2c-1.3,1.5-3,2-6.7,2c-4.8,0-4.8,0-4.2,2.7c1,4.1,1.1,4.1,6.2,5.6
	c4.2,1.3,4.8,1.8,5.3,4.9c0.5,3.3-0.1,4.2-12.7,18.3c-7.3,8.2-13.8,15.1-14.6,15.4c-0.7,0.2-12.4,10-26,21.8
	C595.2,84.4,583.6,94,583.1,94c-1.1,0-4.1,6.3-4.1,8.6c0,0.8,1.5,2,3.4,2.8c4.8,2,7,6.6,6.1,12.5c-0.4,2.5-0.8,6.4-1,8.6
	c-0.2,3.2-0.6,3.9-2,3.7c-2-0.4-5.2,2.3-7.1,6c-0.8,1.6-2,2.8-2.7,2.8c-0.6,0-2.2,2.6-3.4,5.7c-2,5.2-2,5.9-0.7,8.5
	c2.3,4.4,1.7,43.2-0.7,46.8c-1.1,1.7-1.5,3.8-1.2,6.6c0.4,3.8,0.8,4.2,4.3,5.3c9.9,2.9,13.3,10.3,13.4,28.6c0.1,8.4-0.3,11.7-1.5,14
	c-1.5,2.6-1.5,3.1-0.2,4.1c1.1,0.7,1.7,3.5,2.1,8.8l0.5,7.7l-4.1-1.6c-2.2-0.9-5.5-1.5-7.4-1.3c-3.2,0.3-3.3,0.5-3.6,5.1
	c-0.3,3.9-0.7,5-2.7,5.9c-3.1,1.4-5.5,0.4-5.5-2.2c0-4-2.7-8.6-5.8-9.9c-2.5-1.1-3.5-1-6,0.3c-2.7,1.4-3.1,2.3-3.7,7.1l-0.7,5.5H544
	h-4.8l-0.4-5.6c-0.6-6.8-2.5-8.8-7.7-8c-4.7,0.7-5.2,1.5-5.8,8.5c-0.6,5.8-0.7,6.1-3.3,6.1c-3.6,0-5.4-2.3-4.7-5.9
	c0.8-4.1-1.1-6.3-5.7-6.3c-2.1,0-4.3,0.5-4.9,1.1c-1.1,1.1-2,11.4-1.9,24c0.1,7.6,0.3,8.6,2.6,11c1.5,1.5,2.4,3,2,3.3
	c-0.3,0.3,0.2,2.8,1.1,5.4c0.9,2.6,1.5,7,1.4,9.8c-0.1,2.8,0.4,7,1,9.4c1.2,4.4,1.2,16.2,0,16.2c-0.4,0-2.3-0.7-4.2-1.5
	c-2-0.8-4.1-1.5-4.7-1.5c-1.9,0-6,10.7-6,15.5c0,3.9-0.4,4.7-2.5,5.7c-1.7,0.8-2.6,2.2-3,4.7c-0.4,2-1.3,5.1-2.1,6.9
	c-1,2.4-1.3,5.1-0.8,9.6c0.6,6,0.5,6.2-2,7.4c-1.4,0.6-2.6,1.6-2.6,2.1c0,0.6-1.3,2.5-2.9,4.3c-2.8,3.2-3.1,3.8-3.1,5.8
	c0,1-7.1,7.9-9.6,9.3c-1,0.6-2.6-0.1-4.9-2.1c-3.2-2.8-3.6-2.9-8.1-2c-4.7,1-4.7,1-7.8-2.6c-1.8-2-4.9-4.1-7.3-4.9l-4.1-1.4l-4.4,4
	c-4.1,3.7-4.5,3.9-9.8,3.4c-5.2-0.4-5.7-0.2-9.9,3.4c-2.4,2.2-4.8,3.9-5.2,3.9c-0.5,0-1.2,1.5-1.7,3.2c-1,3.8,0.9,9.7,4.5,14.1
	c2,2.5,2.3,4,2.3,11.2v8.3l-4.4,3.9c-6.6,5.6-30,35.7-35.4,45.3c-1.7,3-4.2,9.9-5.6,15.2c-4.9,18.6-10.1,25.9-26.3,36.8
	c-13.1,8.8-18.8,14.1-26,24.3c-6.2,8.7-5.2,7.9-22.2,18.8c-14.7,9.5-21,15.7-30.8,30.1c-5.7,8.3-9.5,12.6-17.5,19.5
	c-12.8,11.1-15.4,14.5-20.8,27.2c-4,9.6-9.2,17.1-11.8,17.1c-1.8,0-4.1-4.3-5.1-9.6c-1.5-7.6-11.3-27.5-15.6-31.7
	c-4.2-4.1-12.7-7.7-18.2-7.7c-4.4,0-11.8,5.2-16.8,11.8c-2.9,3.7-3.5,5.3-3.5,9.4c0,9.2-3.1,13.2-8.5,11.2c-1.3-0.5-0.8-1.2,2.2-3
	c3.5-2.2,3.6-2.3,1.3-2.4c-3.7,0-8.3,3.2-13.1,9.2c-6.1,7.7-7.8,12.1-7.2,19.4l0.5,6h4.9c4.7,0,6.9,0.8,5.6,2
	c-0.3,0.3-3.1,0.6-6.3,0.5c-6.6,0-8.7,0.9-10.7,4.6c-5.5,10.5-9,15.1-11.9,15.7c-3,0.6-3.1,0.6-1.3,2.6s1.8,2.1-1.4,5
	c-3.6,3.3-5.1,3.2-5.1-0.6c0-2.1-0.5-2.4-3.7-2.4c-3.3-0.1-4.2-0.6-6.6-4.1c-3.3-4.7-7.8-6.9-14.4-6.9c-9.1,0-12.2,1.5-20.3,10
	c-4.1,4.3-9,8.5-10.8,9.4c-6.4,3.3-21.2,3.6-40.3,1.1c-4.5-0.6-4.6-0.6-5.2,2.2c-0.3,1.6-0.6,22.6-0.7,46.7l-0.1,43.9l0.1,0.1v14.9
	h3.4c-0.7,1.2,0,1.7,1.5,0.8c0.4-0.3,0.6-0.6,0.7-0.8H1280v-58.9V694.3C1280.1,693.5,1280.1,692.6,1280,691.6z M1251.1,584
	c0.2,0,3.4,2.9,6.9,6.5s6.2,6.5,5.9,6.5c-0.2,0-3.4-2.9-6.9-6.5S1250.8,584,1251.1,584z M1225.2,432c0.2,0,1.5,1.1,2.8,2.5
	c1.3,1.4,2.1,2.5,1.8,2.5c-0.2,0-1.5-1.1-2.8-2.5C1225.7,433.1,1224.9,432,1225.2,432z M696.5,166.2c1.7,0,2.4,0.2,1.8,0.5
	c-0.7,0.2-2.1,0.2-3,0C694.3,166.4,694.9,166.2,696.5,166.2z M685,165.3c2.5,0,3.5,0.2,2.3,0.4c-1.3,0.2-3.3,0.2-4.5,0
	C681.5,165.5,682.5,165.3,685,165.3z M658.5,164.3c2.2-0.1,3.2,0.1,2.3,0.4c-1,0.2-2.8,0.2-4,0C655.5,164.5,656.3,164.3,658.5,164.3
	z M646,364.2c1.4,0,1.9,0.2,1.3,0.5c-0.7,0.2-1.9,0.2-2.5,0C644.1,364.4,644.6,364.2,646,364.2z M637.4,366.1
	c1.1-0.1,1.7,0.2,1.3,0.5c-0.3,0.3-1.2,0.4-1.9,0.1C636,366.4,636.3,366.1,637.4,366.1z M630.5,165.3c2.2-0.1,3.2,0.1,2.3,0.4
	c-1,0.2-2.8,0.2-4,0C627.5,165.5,628.3,165.3,630.5,165.3z M619.4,166.1c1.1-0.1,1.7,0.2,1.3,0.5c-0.3,0.3-1.2,0.4-1.9,0.1
	C618,166.4,618.3,166.1,619.4,166.1z M596.9,593.7c1.3-1.6,2.1-2.1,2.1-1.3c0,0.2-0.8,1-1.7,1.7
	C595.7,595.4,595.6,595.3,596.9,593.7z M455.6,564.3c0.3,0.3,0.4,1.2,0.1,1.9c-0.3,0.8-0.6,0.5-0.6-0.6
	C455,564.5,455.3,563.9,455.6,564.3z M453.6,583.7c0.3-1,0.9-1.5,1.2-1.2c0.3,0.3,0,1.1-0.7,1.8C453.1,585.2,453,585.1,453.6,583.7z
	 M443,593c0.6-1.1,1.3-2,1.6-2c0.2,0,0,0.9-0.6,2c-0.6,1.1-1.3,2-1.6,2C442.2,595,442.4,594.1,443,593z M438,601
	c0.6-1.1,1.3-2,1.6-2c0.2,0,0,0.9-0.6,2c-0.6,1.1-1.3,2-1.6,2C437.2,603,437.4,602.1,438,601z M435,606c0.6-1.1,1.3-2,1.6-2
	c0.2,0,0,0.9-0.6,2c-0.6,1.1-1.3,2-1.6,2C434.2,608,434.4,607.1,435,606z M351.3,573c0.3,1.1,0.1,1.8-0.4,1.4
	c-0.5-0.3-0.9-1.2-0.9-2C350,570.4,350.7,570.7,351.3,573z M167.5,703c1,1.1,1.6,2,1.3,2s-1.3-0.9-2.3-2s-1.6-2-1.3-2
	S166.5,701.9,167.5,703z M164,696.2c1.4,0,1.9,0.2,1.3,0.5c-0.7,0.2-1.9,0.2-2.5,0C162.1,696.4,162.6,696.2,164,696.2z M159,708.3
	c3,0,4.3,0.2,2.8,0.4c-1.6,0.2-4,0.2-5.5,0C154.7,708.5,156,708.3,159,708.3z M150.5,711c0.6,0,1.7,0.5,2.5,1s1.1,1,0.5,1
	c-0.5,0-1.7-0.5-2.5-1S150,711,150.5,711z M95.3,748c2.6,2.4,4.7,4.5,4.7,4.7c0,0.8-0.9,0-5-4.5l-4.5-4.7L95.3,748z M80,748
	c2.5-0.4,4.6-0.8,4.8-0.8c0.2-0.1,0,0.2-0.3,0.8c-0.3,0.5-2.5,0.9-4.8,0.8l-4.2-0.1L80,748z M50.6,764.3c0.3,0.3,0.4,1.2,0.1,1.9
	c-0.3,0.8-0.6,0.5-0.6-0.6C50,764.5,50.3,763.9,50.6,764.3z"/>
</svg>
