<?xml version="1.0" encoding="utf-8"?>
<!-- Generator: Adobe Illustrator 24.3.0, SVG Export Plug-In . SVG Version: 6.00 Build 0)  -->
<svg version="1.1" id="圖層_1" xmlns="http://www.w3.org/2000/svg" xmlns:xlink="http://www.w3.org/1999/xlink" x="0px" y="0px"
	 viewBox="0 0 995 1280" style="enable-background:new 0 0 995 1280;" xml:space="preserve">
<g transform="translate(0.000000,1280.000000) scale(0.100000,-0.100000)">
	<path d="M9829.2,1897.2c-6.3,88.8-9.2,132.2-9.2,136.8c0,8-41,31-97,56c-54,23-102,46-106,50c-4,3,1,26,12,51c30,65,26,106-16,190
		c-73,143-236,274-388,312c-61,16-261,46-370,56l-60,6l-7,385c-14,799-28,1691-29,1849l-2,164l27,16c26,16,26,17,26,137
		c0,66-3,162-7,213l-6,93l-42-4l-42-3l-170,200c-187,220-210,260-174,299l21,22l-24,35c-18,27-26,55-31,116c-12,139-36,142-43,5
		c-3-71-8-90-24-102c-16-13-17-20-9-44c6-15,11-51,11-79v-52l-152-188l-152-187h-41c-75,0-74,1-76-233c0-191,1-210,18-223
		c10-7,22-14,27-14c9,0,1-408-7-417c-2-2-157,51-343,118c-186,67-357,128-380,136l-41,14l-6,1225l-7,1224l76,176l76,175l6,191
		c4,146,8,191,18,195s14,29,14,94v89h-195h-195v294v295l32,52c29,46,33,59,30,110c-3,45,0,60,11,65c12,4,14,35,9,204l-5,199l34,3
		c32,3,22,12-289,282c-345,299-336,290-310,361c9,27,8,39-10,76c-11,24-26,85-33,134c-13,96-19,93-34-17c-4-29-13-63-21-76
		c-12-18-14-42-9-105l7-82l-36-34l-36-35v26c0,18-7,27-22,32c-40,10-85,6-98-9c-7-8-21-15-31-15c-13,0-19-7-19-23c0-13-3-27-7-31
		s-6-38-4-75l3-68l-196-164c-107-90-195-167-195-171c-1-5,10-8,24-8h25v-194c0-160,3-196,15-206c10-9,15-31,15-72c0-53,4-66,36-109
		l36-49l-3-301l-4-301l-202,7l-203,7v-81c0-63,3-83,15-87c13-5,15-37,15-200v-193l81-183c72-164,80-187,74-226l-6-43l-82,3l-81,3
		l-9,39c-6,24-16,40-28,43c-15,4-19,15-19,45c0,33-3,39-16,34c-9-3-28-6-44-6c-26,0-29-4-32-37c-3-32-7-38-28-41c-23-3-25-7-22-37
		l4-35h-134c-74,0-189,3-256,7l-122,6l-6,34l-6,34l-66-3l-65-3l-12-55c-14-68-107-352-113-346c-2,3-1,46,3,95c5,68,11,91,21,91
		c25,0,17,58-11,76c-23,15-25,22-25,94v78l57,8l56,9l-56,65l-57,65v142v141l43,64c32,48,48,64,70,66c15,2,27,8,27,13
		s-75,116-167,247l-167,237l-59,190c-57,184-59,194-63,325c-5,139-20,221-48,261l-16,23v-36c0-19-11-60-24-89c-12-30-22-58-21-64
		c2-5,8-28,14-50c11-35,8-57-18-174c-17-73-31-134-31-136c0-1-9-5-20-8c-18-5-20,0-20,49c0,38-7,69-25,104c-24,47-25,57-25,225v176
		l59,137c56,130,59,143,65,243l7,106l-47,7c-26,3-71,6-100,6h-54v269v269l50,131c47,122,50,137,50,222c0,49-4,99-10,109
		c-6,12-26,20-60,25l-50,7v113v113l-149,564l-150,563l21,22c20,21,20,24,4,48c-9,14-21,25-26,25c-17,0-11,26,10,45l20,18l-20,22
		c-18,19-22,43-31,176c-11,176-19,213-42,217c-13,3-17-4-17-31c0-20-5-104-11-189c-10-143-12-155-36-180l-25-26l26-17
		c35-23,33-32-10-50c-30-12-34-18-29-37c10-31,25-48,41-48c8,0,14-2,14-4c0-18-184-654-192-663c-17-21-27-15-39,27c-9,31-10,43-1,52
		c16,16,15,58-2,77c-9,10-19,80-31,201c-24,258-28,258-49-5c-9-112-21-205-30-226c-13-31-13-39-1-56c12-18,5-39-79-219
		c-78-166-91-200-79-209c12-9,14-55,13-276l-1-266l60-100c120-203,111-165,111-462v-261l-26-6c-27-7-142,1-181,12c-23,6-23,6-23-119
		v-126l28-3c46-7,6-15-173-35l-170-19l-102,100l-102,99l-228-17c-125-9-252-19-280-22l-53-6v43c0,23,6,50,13,58c35,42,40,93,24,242
		c-9,79-19,173-22,209c-5,55-10,67-28,75c-17,8-23,22-28,63c-4,29-9,56-12,58c-3,3-29-1-58-8c-54-13-54-13-55-53c-2-62-3-63-25-70
		c-19-6-20-13-17-126c2-65,0-120-4-121c-5,0-13-1-19-2c-7-1-47,133-99,329c-86,326-87,330-68,354c24,32,23,56-5,68
		c-21,10-25,21-30,80c-4,37-7,107-7,154c0,65-4,90-15,99c-9,7-17,11-19,9c-2-2-9-67-16-144c-6-77-18-164-26-193c-12-42-12-60-3-85
		c9-27,7-48-16-132c-36-134-179-636-215-755c-16-52-38-127-49-166c-16-55-26-73-42-77c-15-4-20-11-15-22c3-9,6-64,6-121v-104h30
		c28,0,30-3,30-35c0-29-22-65-137-219l-138-184l-3,46c-2,26-10,54-19,64c-12,13-13,26-6,60c11,55,6,95-13,102c-21,8-93-23-105-46
		c-9-16-6-27,15-56c26-36,26-52,1-52c-22,0-36-35-28-72c13-72-9-14-43,108c-38,141-39,194-4,194c17,0,20,7,20,40c0,38-2,40-30,40
		c-25,0-30,4-30,25c0,23-4,25-43,25c-43,0-43-1-39-30c4-28,2-30-27-30c-29,0-31-3-31-34c0-30,3-35,28-38c48-5,41-40-66-305
		c-126-312-119-290-87-305l25-11l-2-156l-3-156l-27-13l-28-13v-112v-112l55-62l56-62l-4-658l-3-658l-132-759C60,5458,1,5115,3,5114
		V0h6288.2h152.4H9459h86h397.7v1897.2H9829.2z"/>
</g>
</svg>
