<?xml version="1.0" encoding="utf-8"?>
<!-- Generator: Adobe Illustrator 25.0.0, SVG Export Plug-In . SVG Version: 6.00 Build 0)  -->
<svg version="1.1" id="Layer_1" xmlns="http://www.w3.org/2000/svg" xmlns:xlink="http://www.w3.org/1999/xlink" x="0px" y="0px"
	 viewBox="0 0 1200 545" style="enable-background:new 0 0 1200 545;" xml:space="preserve">
<style type="text/css">
	.st0{fill:#FFFFFF;}
</style>
<g>
	<path class="st0" d="M399.4,68c0-10.3-6.1-19.6-16.6-22.2c8-3,13.8-10,13.8-19.9c0-14.5-10.3-24.9-27.8-24.9h-30v92.1H371
		C387.9,93.1,399.4,82.6,399.4,68z M351.5,12.2h15.3c10.5,0,16.9,5.7,16.9,14.4c0,8.6-6.1,14.7-16.4,14.7h-15.8V12.2z M351.5,81.9
		V52.2h18.2c11.2,0,16.8,6.2,16.8,15.1c0,9-7,14.7-17.3,14.7H351.5z"/>
	<path class="st0" d="M512.2,28.4C512.2,13.2,501.4,1,484,1h-34.7v92.1h12.9V55.4H476l21,37.7h14.8l-21.9-38.6
		C503.8,51.9,512.2,41.7,512.2,28.4z M481.7,44h-19.5V12.5h19.5c10.4,0,17.4,6.2,17.4,16C499.1,37.9,492.1,44,481.7,44z"/>
	<polygon class="st0" points="618.1,81.3 574.9,81.3 574.9,53.1 614.1,53.1 614.1,41.2 574.9,41.2 574.9,12.9 618.1,12.9 618.1,1 
		562.1,1 562.1,93.1 618.1,93.1 	"/>
	<path class="st0" d="M746,47.3C746,17,725.6,1,702.2,1H670v92.1h31.9C725.3,93.1,746,77.4,746,47.3z M682.7,81.8V12.3h19.1
		c17,0,31,11.7,31,34.9c0,23.1-14.3,34.5-31.3,34.5H682.7z"/>
	<path class="st0" d="M805.6,67.4h40.8l10,25.7h13.8L833.5,1h-14.7l-36.6,92.1h13.6L805.6,67.4z M825.9,14.3l16,41.3h-31.7
		L825.9,14.3z"/>
	<polygon class="st0" points="579.4,214.3 571.6,222 591.5,241.9 571.6,261.8 579.2,269.5 599.2,249.6 619.1,269.5 626.8,261.7 
		606.9,241.8 626.7,222 619.1,214.3 599.3,234.2 	"/>
	<path class="st0" d="M485.7,446.7l-1,0.1c-11.5,5.6-24,10.4-37.4,14.2l-4.3,1c-0.5,0-0.8-0.3-0.8-0.8c0-1.4,0.9-3.1,2.6-4.9
		c1.4-1.4,2.7-2.9,4-4c9.1-6.8,13.6-12.3,13.6-16.9c0-0.9-0.1-1.9-0.4-2.9c-1.2-2.7-3-4.2-5.4-4.2c-4,0-8.7,2.2-14.3,6.7l-0.1,0.1
		c-1.8,1.4-3.5,2.6-4.9,3.5l-0.1-0.5c0-3.5-1.7-5.3-4.9-5.3c-5.1,0-6.8,4.4-6.8,6.6c0,2.7,0.6,4.4,1.8,4.8c-0.9,0.8-2.5,1.6-4.7,2.2
		c-0.6,0.3-1.1,0.6-1.4,1.1c-0.2,0-0.4,0-0.6,0l-1,0.1c-5.8,2.3-11.7,3.5-17.5,3.5c-4.5,0-11.8-2.5-18.7-2.5
		c-1.7-2.3-4.8-3.6-9.3-3.9c-3.9,0-7.6,1.2-10.9,3.6c-7.9,3.9-16.2,6.8-24.8,8.9c-5.2,1.4-10,2.1-14.3,2.1c-2.7,0-5.2-0.4-7.4-1.2
		c-2.5-0.9-3.6-2.9-3.6-5.8c0-3,1.4-7.1,4.2-12.3l0.9-1.9c15.4-9.5,28.6-21.8,39.6-37c6-8,10.8-16.7,14.3-26.1
		c0.9-2.5,1.3-4.7,1.3-6.6c0-4.2-1.7-6.2-4.9-6.2c-2.5,0-5.4,1.6-9.1,4.7c-7.1,6.4-13.4,13.8-18.7,22.1
		c-10.8,15.3-19.6,30.5-26.5,45.6c-8.3,5.1-17.1,9.2-26.6,12.3c-0.7,0.3-1.1,0.7-1.4,1.1c-5.8,1.8-11.8,3-18,3.5l-8.3,1.2
		c-9.3,1.8-17.3,4.8-23.9,9.1c1.8-6.7,5.2-17,10.3-30.9l0.1-0.6c0-1.7-0.8-2.7-2.2-2.9c-1.2,0.1-6.5,5.2-16.1,14.9
		c-9.5,9.5-14.5,14.4-15.5,14.8c0.9-3.1,2.2-6.4,3.9-9.7c1.9-4,3-7,3-9c0-1.4-0.5-2.9-1.6-4c-0.5-0.5-1.2-0.8-1.8-0.8
		c-0.6,0-1.3,0.3-1.8,0.8c-5.4,5-11.5,9.2-18.1,12.5c-0.1,0-0.2,0-0.3,0c-0.4,0-1.4,0.3-3.1,0.9c-14.7,5.3-26.5,8-35.7,8
		c-6.5,0-9.7-2.3-9.7-7.1c0-2.2-0.9-3.2-2.6-3.2c-0.6,0-1.2-0.1-1.6-0.5c-2.7-1.8-5.6-2.7-8.6-2.7c-5.7,0-11.7,1.8-17.8,5.5
		c-0.3,0.2-0.6,0.4-0.9,0.6c-30,10-58.9,15.1-86.5,15.2h-5.7c-1.9-0.1-3.9-0.3-5.8-0.5c-2.9-0.3-5.2-1.3-7-3.2
		c-1.7-1.7-2.6-3.9-2.7-6.4c-0.1-1.2,0-2.5,0.5-3.8c7.3-7.3,14.3-14.8,21-22.5l5.7-0.1c29.5,0,44.1-1.2,44.1-3.6
		c0-1.7-0.8-2.5-2.5-2.5l-42.8,1c5.8-6.9,11.3-14.4,16.4-22.7l1.2-1.9c2.7-4.4,4.2-7.8,4.2-10.3c0-1.3-0.3-2.6-0.8-3.8
		c-0.4-0.9-0.9-1.3-1.8-1.3c-0.8,0-1.6,0.3-2.2,0.6c-5.6,4.8-10.7,9.9-15.5,15.5c-3.4,4.3-6.6,8.7-9.9,13.2v0.1
		c-2.6,3.5-5.1,7-7.4,10.6c-5.1-0.1-10.1-0.9-15.2-2.1H2.5c-1.6,0-2.5,1.3-2.5,2.7c0,1.2,0.6,1.8,1.8,2.2c4.5,1.2,9,1.8,13.4,2.1
		c-5.6,8.8-9.1,15.3-10.8,19.6c-1.2,2.5-1.7,4.8-1.7,7.1c0,1.9,0.4,3.9,1.3,5.8c2.9,4.9,7,7.7,12.5,8.3c4,0.6,7.8,0.9,11.3,0.9
		c3.2-0.1,6.6-0.3,9.9-0.4l3.6-0.3c24.4-1.3,48.1-5.8,71.1-13.4c0,0.2,0,0.3,0,0.5c0.4,4.5,2.7,6.9,7.3,6.9c1.6,0,3.6-0.4,6.4-1.2
		c6.4-1.9,11.8-4.8,16.5-8.3c0.5,2.1,2.1,4,4.7,6c3.2,1.8,6.5,2.7,10,2.7c1.6,0,3.1-0.1,4.7-0.5c11.8-1.9,23.2-4.8,34.5-8.8
		c0,0,0,0,0,0c0,0,0.1,0,0.1,0c0.4,0,0.9-0.1,1.3-0.4c6.6-3.5,10.8-5.8,12.5-7.3c1.7-1.4,2.7-2.1,3.1-2.1c0.1,0,0.1,0,0.1,0.1
		c0,0.4-0.6,1.8-1.9,4c-1.9,3.5-3.2,7.1-4,11c0,3.5,1.8,4.9,3.9,4.9c1.2,0,2.3-0.4,3.5-1c4.2-2.5,7.8-5.7,11-9.6
		c2.2-2.5,6.1-6.4,11.6-11.8c-1.3,3.2-2.6,7-4,11.3c-0.9,3.5-2.3,8.4-4.5,14.9c-15.7,10.1-30,22.1-43,35.7
		c-6.9,6.6-12.3,14-16.5,22.3c-1.4,3-2.2,6.2-2.2,9.7c0,4.8,2.3,8,6.9,9.7c1.2,0.1,2.2,0.3,3.2,0.3c5.1,0,10.5-3.4,16.4-10.3
		c5.6-5.6,11.8-13.2,18.4-22.7c8.7-13,15.7-26.7,21-41.4c8.4-5.7,17.7-9.6,27.7-11.8l8.3-1.2c7.4-0.6,14.7-2.2,21.8-4.7
		c0.6-0.3,1-0.7,1.2-1.2c6.9-2.5,12.9-5.2,18-8c-1.6,3.1-2.3,6.4-2.3,9.6c0,4,1.3,6.9,3.8,8.7c2.7,1.9,5.3,3.1,7.9,3.2
		c2.6,0.1,4.5,0.3,5.7,0.3c2.5,0,4.7-0.1,6.8-0.5c8.5-1.5,16.7-3.8,24.7-7c-0.1,0.6-0.2,1.3-0.2,2c0,1.4,0.4,2.7,1,4.2
		c1.9,3,4.8,4.5,8.3,4.5c6.9,0,13.9-4.5,17.1-9.2c1.4-1.9,2.1-3.4,2.1-4.4c4.5,0,10.9,2.9,17,2.9c6.5,0,12.9-1.4,19.1-4.2
		c0.6-0.3,1-0.6,1.3-1c0.2,0,0.4,0,0.6,0l0.9-0.1c4-1.2,7.3-3.2,10-6.1c3.2-0.5,6.9-2.6,11.2-6.1c2.7-2.5,5.7-4.3,8.8-5.4h0.1
		c0.8-0.3,1.3-0.4,1.7-0.4l0.5,0.1c0.5,0.4,0.8,0.9,0.8,1.6c0,2.2-3,5.7-8.8,10.6l-0.5,0.5c-4.3,3.2-7.7,7.3-10.3,12.1
		c-0.6,1.3-0.9,2.5-0.9,3.5c0,3.5,2.1,5.2,6.1,5.2c2.9-0.3,5.7-0.9,8.6-1.8l2.2-0.6c11-3.5,22.2-7.9,33.5-13.4
		c0.9-0.4,1.4-1,1.4-1.9C488.4,447.5,486.8,446.7,485.7,446.7z M339.3,400.1c11.3-17.4,20.4-28,27.1-31.8c0.4-0.1,0.8-0.3,1.2-0.3
		s0.5,0.1,0.5,0.5c0,0.6-0.1,1.4-0.4,2.3c-0.6,3-1.7,5.7-3,8.2c-10.4,21.3-24.5,37.9-42.3,50C327.3,419.3,332.9,409.6,339.3,400.1z
		 M30.3,413.6c6.1-9,12.6-16.6,19.2-22.8c-0.4,0.8-0.9,1.7-1.6,2.7l-1,1.6c-5.1,8.8-11.6,17.9-19.6,27.1h-2.9L30.3,413.6z
		 M21.2,427.2h1.6l-4.9,5.5L21.2,427.2z M126.9,455.3c-2.2,0.9-4,1.3-5.6,1.3c-1.4,0-2.3-0.4-3-1.2c-0.4-0.4-0.5-0.9-0.5-1.3
		c0-0.5,0.2-0.9,0.7-1.4c0.2-0.1,0.5-0.2,0.7-0.3c0.7-0.2,1.3-0.7,1.6-1.3c0.8-0.4,1.8-0.9,2.9-1.4c4-1.7,7.3-2.5,9.5-2.5
		c2.5,0,4.4,0.5,5.8,1.4C135.4,451.4,131.2,453.6,126.9,455.3z M199.4,519.7c-4.4,5.1-7.4,8.4-8.8,9.9c-2.5,3.1-5.3,5.7-8.4,7.8
		c-1.6,0.9-2.9,1.4-3.8,1.4h-1.7c-1.7,0-3-0.8-3.9-2.3c-0.4-0.9-0.5-1.9-0.5-3.1c0-2.7,1.2-6.2,3.6-10.4c4.5-7.4,10-14,16.2-19.9
		c11-11.4,22.2-20.9,33.8-28.6C219.9,489.9,211,505,199.4,519.7z M372.5,458.9c-1.7,2.5-3.8,3.9-6.2,4c-3.1-0.4-4.7-1.6-4.7-3.5
		c0-0.3,0-0.5,0.1-0.6c0-1.3,0.6-2.7,1.8-4.2c0.6-0.5,1.1-1,1.7-1.5c1.1-0.5,2.2-1.1,3.3-1.7c0.5-0.2,0.8-0.5,1-0.8
		c1.4-0.5,2.8-0.8,4.3-0.9h5.5C376.5,451.3,374.2,454.2,372.5,458.9z M377.7,458.5c-0.5,0-0.8-0.3-0.8-0.8c0.3-2.2,1.3-3.4,3.2-3.6
		c0.5,0,0.8,0.1,0.8,0.5C380.9,455.5,378.6,458.5,377.7,458.5z M431,440.5c-0.3,0-0.4-0.6-0.4-1.9c0-0.5,0.1-0.8,0.5-0.8
		c0.4,0,0.6,0.1,0.8,0.3C431.9,438.7,431.7,439.6,431,440.5z"/>
	<path class="st0" d="M1197.5,446.7c-0.5,0-1,0.1-1.4,0.4c-14.3,7.7-29.3,11.6-45.3,11.6c-6.6,0-13.2-0.8-19.9-2.2
		c-0.9,0-3-0.5-6.1-1.6c-1.8-0.6-3.4-1.6-4.8-3l-0.6-0.6c4.2-0.5,8.3-2.3,12.6-5.5c3.6-2.6,5.5-5.3,5.5-8l-0.1-1.4
		c-0.9-3-3-4.5-6.4-4.5c-2.7,0-5.7,1.2-9,3.6c-5.4,4.2-8.2,8.3-8.5,12.4c-14.6,5.3-26.4,8-35.6,8c-6.5,0-9.7-2.3-9.7-7.1
		c0-2.2-0.9-3.2-2.6-3.2c-0.6,0-1.2-0.1-1.6-0.5c-2.7-1.8-5.6-2.7-8.6-2.7c-5.7,0-11.6,1.8-17.7,5.4l-0.4,0.1
		c-25.8,9.5-47.9,14.3-66,14.3c-19.9,0-37-4.8-51.4-14.5c-3.5-2.6-6.9-5.4-9.9-8.6c-2.2-2.2-4.4-4.4-6.9-6.4
		c-5.4-3.8-10.9-5.6-16.2-5.6c-6.4,0-12.7,2.7-18.8,8c-10.9,8.7-21.6,17.7-31.8,27l-6,5.3l-0.4,0.4l1.6-4.3
		c3.4-10.8,7.4-21.3,11.9-31.6c0.3-0.1,0.5-0.3,0.6-0.4c29.7-18.6,53.4-42.6,71.1-72.3l0.1-0.4c6.6-9.7,11.3-20.3,13.9-31.6
		c0.3-1.4,0.4-2.9,0.4-4.5c0-5.2-1.9-7.8-5.8-7.8c-2.2,0-4.9,1.2-8.2,3.4c-9,6.1-16.5,13.8-22.7,22.9c-22.3,28.7-40,57.4-53,86.1
		l-0.5,0.3c-13.5,8.2-27.8,14.8-42.7,19.9c-0.1,0-0.2,0.1-0.3,0.1c-3.6,0.8-6.7,1.2-9.3,1.3c-3.9,0-10.9,0.6-21,1.9
		c-5.8,0.8-11.2,2.2-16,4.3c-1.2-3.8-3.6-7.5-7.3-11.3l-1.4-1.7c8.7-4.3,13.4-9.5,13.8-15.3c-0.4-5.1-2.6-7.5-6.9-7.5
		c-4.3,0-8.6,1.4-12.7,4.4c-4,2.9-6.2,6.2-6.5,10.3c0.1,2.5,1.4,4.8,3.9,7c-4.5,2.1-9.6,4.2-14.9,6.2c-0.2,0.1-0.3,0.2-0.5,0.3
		c-0.4,0.1-0.8,0.3-1.3,0.5c-14.7,5.3-26.5,8-35.7,8c-6.5,0-9.7-2.3-9.7-7.1c0-2.2-0.9-3.2-2.6-3.2c-0.6,0-1.2-0.1-1.6-0.5
		c-2.7-1.8-5.6-2.7-8.6-2.7c-5.3,0-10.8,1.6-16.4,4.7c-0.2,0.1-0.4,0.1-0.5,0.3c-8.7,4.5-17.9,7.9-27.5,10.3
		c-5.2,1.4-10,2.1-14.3,2.1c-2.7,0-5.2-0.4-7.4-1.2c-2.5-0.9-3.6-2.9-3.6-5.8c0-3,1.4-7.1,4.2-12.3l0.9-1.9
		c15.4-9.5,28.6-21.8,39.6-37c6-8,10.8-16.7,14.3-26.1c0.9-2.5,1.3-4.7,1.3-6.6c0-4.2-1.7-6.2-4.9-6.2c-2.5,0-5.4,1.6-9.1,4.7
		c-7.1,6.4-13.4,13.8-18.7,22.1c-10.8,15.3-19.6,30.5-26.5,45.6c-8.3,5.1-17.1,9.2-26.6,12.3c-1.2,0.5-1.8,1.3-1.8,2.5
		c0,1.6,1,2.7,2.5,2.7l0.8-0.1c8.3-2.9,15.5-6,21.3-9.2c-1.6,3.1-2.3,6.4-2.3,9.6c0,4,1.3,6.9,3.8,8.7c2.7,1.9,5.3,3.1,7.9,3.2
		c2.6,0.1,4.5,0.3,5.7,0.3c2.5,0,4.7-0.1,6.8-0.5c9.9-1.7,19.6-4.6,28.8-8.7c0,0,0,0,0,0c0.4,4.5,2.7,6.9,7.3,6.9
		c1.6,0,3.6-0.4,6.4-1.2c6.4-1.9,11.8-4.8,16.5-8.3c0.5,2.1,2.1,4,4.7,6c3.2,1.8,6.5,2.7,10,2.7c1.6,0,3.1-0.1,4.7-0.5
		c11.8-1.9,23.2-4.8,34.5-8.8c0.5-0.2,1-0.5,1.3-0.8c5.4-2.1,10.5-4.4,15.3-6.8c4.7,4.5,7.7,8.8,8.8,13c-3.9,2.2-7.3,5.3-10.3,9.3
		c-1.8,2.6-2.7,5.5-2.7,8.4c0,2.6,1.3,4.7,3.8,6.2c0.9,0.3,1.7,0.4,2.3,0.4c1.2,0,2.3-0.3,3.5-0.9c3.2-1.9,5.7-4.9,7.5-9
		c1.3-3,1.9-6.1,1.9-9.1c0-1-0.1-1.9-0.3-2.7c6.4-3.2,17.7-5.2,33.9-6.1c7.7-0.5,12.6-1.2,14.8-2.3c12.7-4.3,24.8-9.7,36.4-16.3
		l0.5-0.4c-3.5,8.8-7,17.7-10.4,26.6c-1.7,4.8-3.5,9.5-5.3,14.2l-0.1,1c0,0.4,0.1,0.8,0.4,1.2c0.6,0.6,1.4,1,2.5,1
		c0.6,0,1.2-0.3,1.7-0.6l41.3-35.6c7.7-7.3,14.8-11,21.2-11.3c3.6,0.1,6.9,1.2,9.6,3.2c2.5,1.8,5.6,4.7,9.6,8.7
		c18.4,16,39.3,23.9,62.7,23.9c4.8,0,9.6-0.4,14.5-1c16.7-2.2,33-6.1,48.9-11.7c0,0.2,0,0.4-0.1,0.7c0.4,4.5,2.7,6.9,7.3,6.9
		c1.6,0,3.6-0.4,6.4-1.2c6.4-1.9,11.8-4.8,16.5-8.3c0.5,2.1,2.1,4,4.7,6c3.2,1.8,6.5,2.7,10,2.7c1.6,0,3.1-0.1,4.7-0.5
		c10.8-1.8,21.3-4.3,31.7-7.9c3,5.1,9.7,8.2,20.2,9.5l0.8,0.1c5.1,0.8,10.3,1.2,15.3,1.2c17.1,0,33.1-4.2,47.8-12.3
		c0.9-0.4,1.4-1,1.4-1.9C1200,447.5,1198.4,446.7,1197.5,446.7z M880.9,366.1c13-18.6,23.4-31.4,31.3-38.8c2.9-2.6,5.8-4.7,9.1-6.1
		c0.8-0.4,1.4-0.5,1.8-0.5c0.9,0,1.3,0.9,1.3,2.7c-0.1,7.8-4,17.5-11.4,29.1c-5.1,9.5-11.7,19.1-19.9,29.1
		c-13.1,15.8-28,29.5-45.1,41l-0.4,0.3C858.4,401.4,869.4,382.4,880.9,366.1z M614.5,400.1c11.3-17.4,20.4-28,27.1-31.8
		c0.4-0.1,0.8-0.3,1.2-0.3s0.5,0.1,0.5,0.5c0,0.6-0.1,1.4-0.4,2.3c-0.6,3-1.7,5.7-3,8.2c-10.4,21.3-24.5,37.9-42.3,50
		C602.6,419.3,608.2,409.6,614.5,400.1z M650.6,455.3c-2.2,0.9-4,1.3-5.6,1.3c-1.4,0-2.3-0.4-3-1.2c-0.4-0.4-0.5-0.9-0.5-1.3
		c0-1.3,1.9-2.7,6-4.4c4-1.7,7.3-2.5,9.5-2.5c2.5,0,4.4,0.5,5.8,1.4C659,451.4,654.9,453.6,650.6,455.3z M734.7,433.6
		c0-2.3,1.4-4.5,4.4-6.5c3-2.1,5.4-3.1,7.5-3.1c2.2,0,3.4,0.9,3.4,2.9c0,3.2-4,7.1-12.2,11.4C738.1,437.8,735.2,437.4,734.7,433.6z
		 M741.8,474.6c-1.2,1.2-2.2,1.7-2.9,1.7c-0.5,0-1.4-0.9-1.4-1.9c0-0.9,0.4-2.1,1-3.2c1.9-3.5,4.5-6.2,7.8-8.2l0.1,0.8
		C746.5,467.7,745,471.4,741.8,474.6z M1047.9,455.3c-2.2,0.9-4,1.3-5.6,1.3c-1.4,0-2.3-0.4-3-1.2c-0.4-0.4-0.5-0.9-0.5-1.3
		c0-1.3,1.9-2.7,6-4.4c4-1.7,7.3-2.5,9.5-2.5c2.5,0,4.4,0.5,5.8,1.4C1056.3,451.4,1052.2,453.6,1047.9,455.3z M1122.9,441.6
		c3-3.1,5.8-4.7,8.3-4.7c0.6,0,1,0.3,1,0.9c0,0.6-0.3,1.3-0.9,1.8c-1.7,1.6-4.3,3.1-7.5,4.8c-1.9,1-3.5,1.6-4.7,1.7
		C1119.5,444.8,1120.8,443.3,1122.9,441.6z"/>
</g>
</svg>
