<?xml version="1.0" encoding="utf-8"?>
<!-- Generator: Adobe Illustrator 24.3.0, SVG Export Plug-In . SVG Version: 6.00 Build 0)  -->
<svg version="1.1" xmlns="http://www.w3.org/2000/svg" xmlns:xlink="http://www.w3.org/1999/xlink" x="0px" y="0px"
	 viewBox="0 0 100 100" style="enable-background:new 0 0 100 100;" xml:space="preserve">
<style type="text/css">
	.st0{display:none;}
	.st1{display:inline;fill:#231F20;}
	.st2{display:inline;}
	.st3{fill:#ffffff;}
	.st4{fill:none;stroke:#FF0000;stroke-width:0.5;stroke-miterlimit:10;}

	<!-- #231F20 -->
</style>
<g id="圖層_1" class="st0">
	<path class="st1" d="M70,86.5c-0.2,0.1-0.5,0.2-0.7,0.3c-0.3,0.1-0.6,0.2-0.8,0.3c-0.1,0.1,0,0.2,0.1,0.2l0.3-0.1
		c0.2-0.1,0.2,0,0.3,0.1c0,0.1,0.1,0.3,0.1,0.7l0.1,0.9c0,0.2,0,0.2-0.2,0.3L68,89.6c-0.2,0.1-0.3,0.1-0.4-0.1l-0.8-0.9
		c-0.1-0.2-0.2-0.3-0.3-0.3c0-0.1,0.1-0.2,0.2-0.2L67,88c0-0.1,0-0.2-0.1-0.2c-0.2,0.1-0.5,0.2-0.8,0.4c-0.3,0.1-0.6,0.3-0.9,0.4
		c0,0,0,0.2,0.1,0.2l0.2-0.1c0.3-0.1,0.5,0,1,0.5l2.3,2.5c0.3,0.3,0.5,0.6,0.8,0.8c0,0,0.1,0,0.1,0c0-0.1,0.1-0.3,0.3-0.4
		c-0.1-0.1-0.1-0.3-0.1-0.6l-0.1-2.3c-0.1-1-0.1-1.5-0.1-1.9c0-0.3,0.1-0.5,0.3-0.6l0.2-0.1C70.1,86.6,70,86.5,70,86.5z M69.5,91.6
		L69.5,91.6c-0.1-0.1-0.3-0.2-0.4-0.4l-0.9-1C68,90,68,90,68.2,89.9l0.9-0.4c0.2-0.1,0.2-0.1,0.2,0.1l0.1,1.5
		C69.5,91.2,69.5,91.4,69.5,91.6L69.5,91.6z"/>
	<path class="st1" d="M45.2,3.6l0.2,0c0.3,0,0.4,0.2,0.4,0.8l0.1,3c0,0.8,0,0.9-0.5,1l-0.2,0c0,0.1,0,0.2,0,0.2c0.4,0,0.7,0,1-0.1
		c0.3,0,0.8,0,1.3,0c0.6,0,1.3-0.1,1.8-0.4c0.9-0.5,1.4-1.4,1.3-2.4c0-1.1-0.6-2-1.7-2.3c-0.5-0.2-1.1-0.2-1.8-0.2
		c-0.7,0-1.3,0.1-2,0.1C45.2,3.4,45.2,3.6,45.2,3.6z M46.5,3.7c0.1-0.1,0.3-0.1,0.8-0.1c2.1-0.1,2.6,1.4,2.6,2.3
		c0,1.5-0.6,2.5-2.2,2.6c-0.5,0-0.8-0.1-1-0.3c-0.1-0.2-0.2-0.4-0.2-0.9l-0.1-3C46.5,3.9,46.5,3.7,46.5,3.7z"/>
	<path class="st1" d="M86.3,77.7c-0.5-0.4-1.1-0.4-1.6-0.3l-0.9,0.2c-0.7,0.2-1,0-1.3-0.3c-0.4-0.3-0.5-0.9,0-1.4
		c0.6-0.7,1.4-0.4,1.8-0.2c0.1,0,0.1-0.1,0.1-0.2c-0.3-0.2-0.8-0.6-1-0.6c-0.2,0.1-0.6,0.2-1.1,0.7c-0.7,0.8-0.7,1.7-0.1,2.3
		c0.6,0.5,1.2,0.5,1.8,0.3l0.7-0.2c0.3-0.1,0.8-0.1,1.2,0.2c0.3,0.3,0.5,0.7,0,1.3c-0.5,0.6-1.1,0.4-1.4,0.2c-0.1,0-0.1,0.1-0.1,0.2
		c0.2,0.2,0.6,0.5,0.8,0.6c0.1-0.1,0.1-0.1,0.2-0.2c0.2-0.1,0.4-0.3,0.6-0.5C86.9,79.1,86.9,78.3,86.3,77.7z"/>
	<path class="st1" d="M30.5,7.7l0.3-0.1c0.3-0.1,0.4,0,0.7,0.7l1,2.7c0.3,0.8,0.3,0.9-0.1,1.1l-0.2,0.1c0,0.1,0,0.2,0.1,0.2
		c0.3-0.2,0.6-0.3,0.9-0.4c0.3-0.1,0.6-0.2,0.9-0.3c0,0,0-0.2-0.1-0.2l-0.2,0c-0.5,0.1-0.5,0-0.8-0.8l-0.4-0.9
		c-0.1-0.2-0.1-0.2,0.3-0.3c0.3-0.1,0.4-0.1,0.6,0c0.4,0.2,0.9,0.6,1.2,0.8c0.8,0.6,1.3,0.6,1.9,0.3c0.1,0,0.2-0.1,0.3-0.2
		c0,0,0-0.1,0-0.1c0,0,0,0,0,0c-0.2,0.1-0.4,0.1-0.6,0C35.6,10.3,35,9.9,34,9.1C34,9.1,33.9,9,33.9,9c0.3-0.3,0.7-0.9,0.5-1.6
		c-0.2-0.5-0.6-0.8-1-0.8C33,6.5,32.5,6.6,32,6.8c-0.7,0.3-1.2,0.5-1.6,0.7C30.3,7.5,30.4,7.7,30.5,7.7z M32.1,7
		c0.8-0.3,1.4,0.1,1.6,0.7c0.2,0.5,0.1,0.8,0,1.1C33.6,9,33.3,9.2,33,9.3c-0.4,0.1-0.5,0.2-0.5,0.2c0,0-0.1-0.1-0.1-0.2l-0.7-1.7
		C31.6,7.2,31.6,7.2,32.1,7L32.1,7z"/>
	<path class="st1" d="M38.2,10.1c0.2-0.1,0.5-0.1,0.7-0.2c0.4-0.1,0.6-0.1,0.8-0.1c0.1,0,0-0.2,0-0.2l-0.3,0c-0.2,0-0.2,0-0.3-0.1
		c0-0.1,0-0.3,0-0.7L39.3,8c0-0.2,0.1-0.2,0.3-0.3l1.2-0.2c0.2-0.1,0.3,0,0.4,0.1l0.6,1c0.1,0.2,0.2,0.3,0.2,0.4s-0.1,0.1-0.2,0.2
		l-0.2,0.1c0,0.1,0,0.2,0.1,0.2c0.2-0.1,0.5-0.1,0.9-0.2c0.4-0.1,0.6-0.1,1-0.2c0,0,0-0.2,0-0.2l-0.2,0c-0.3,0-0.5-0.1-0.8-0.7
		l-1.7-2.9c-0.2-0.3-0.4-0.7-0.6-1c0,0-0.1-0.1-0.1,0c-0.1,0.1-0.2,0.3-0.3,0.4c0.1,0.1,0,0.3,0,0.6l-0.4,2.3
		c-0.1,0.9-0.3,1.5-0.3,1.9c-0.1,0.3-0.2,0.4-0.4,0.5l-0.3,0.1C38.1,10,38.1,10.1,38.2,10.1z M39.4,7.2l0.2-1.5
		c0-0.2,0.1-0.3,0.1-0.5l0,0C39.9,5.4,40,5.5,40,5.7l0.7,1.2c0.1,0.2,0.1,0.2-0.1,0.3l-1,0.2C39.4,7.4,39.4,7.4,39.4,7.2z"/>
	<path class="st1" d="M64.8,94.3l-0.1,0c-0.2,0-0.4,0-0.5-0.1c-0.2-0.1-0.3-0.3-0.3-0.5l-0.6-2.2c-0.1-0.4-0.3-1.3-0.3-1.6
		c0-0.1,0.1-0.2,0.3-0.2l0.2-0.1c0-0.1,0-0.2-0.1-0.2c-0.3,0.1-0.5,0.1-0.8,0.2c-0.3,0.1-0.6,0.1-0.9,0.2c0,0.1,0,0.2,0,0.2l0.2,0
		c0.2,0,0.4,0,0.4,0c0.2,0.2,0.5,1.2,0.5,1.6l0.4,1.7c0.1,0.2,0.1,0.4,0.1,0.5l0,0c-0.2-0.1-0.9-0.6-1.2-0.8l-2.3-1.6
		c-0.9-0.6-1.2-0.8-1.3-0.9c-0.1,0-0.1,0.1-0.1,0.1c0.1,0.2,0.3,1.1,0.4,1.4l0.5,1.9c0.1,0.4,0.3,1.3,0.3,1.6c0,0.1-0.2,0.2-0.4,0.3
		l-0.1,0c0,0.1,0,0.2,0.1,0.2c0,0,0,0,0,0c0.3-0.1,0.5-0.1,0.8-0.2c0.3-0.1,0.6-0.1,0.9-0.2c0.1,0,0-0.2,0-0.2l-0.1,0
		c-0.3,0-0.5,0-0.5,0c-0.2-0.2-0.5-1.2-0.6-1.6L59.2,92c0-0.2-0.1-0.3-0.1-0.3l0,0c0.5,0.3,1,0.6,1.6,1.1l1,0.7
		c0.3,0.2,1.5,1,1.8,1.4c0.1,0,0.2-0.1,0.4-0.1c0.1,0,0.6-0.1,0.9-0.2C64.9,94.5,64.8,94.3,64.8,94.3z"/>
	<path class="st1" d="M96.6,48.5c-0.1,0-0.3,0-0.6-0.1l-2.2-0.8c-0.9-0.3-1.4-0.5-1.8-0.7c-0.3-0.1-0.4-0.3-0.4-0.5l0-0.3
		c0,0-0.2,0-0.2,0c0,0.2,0,0.5,0,0.8c0,0.4,0,0.6,0,0.8c0,0.1,0.2,0.1,0.2,0l0-0.3c0-0.2,0.1-0.2,0.2-0.2c0.1,0,0.3,0.1,0.7,0.2
		l0.8,0.3c0.2,0.1,0.2,0.1,0.2,0.3l0,1.2c0,0.2,0,0.3-0.2,0.3l-1.1,0.4C92,50,91.9,50,91.8,50c-0.1,0-0.1-0.1-0.1-0.3l0-0.2
		c0-0.1-0.2,0-0.2,0c0,0.2,0,0.5,0,0.9c0,0.4,0,0.6,0,1c0,0,0.2,0.1,0.2,0l0-0.2c0-0.3,0.2-0.5,0.8-0.7l3.2-1.1
		c0.4-0.1,0.7-0.3,1.1-0.4c0,0,0.1-0.1,0.1-0.1C96.8,48.8,96.6,48.7,96.6,48.5z M95.4,48.9l-1.3,0.4c-0.2,0.1-0.2,0.1-0.2-0.2l0-1
		c0-0.2,0-0.2,0.2-0.2l1.4,0.5c0.2,0.1,0.3,0.1,0.5,0.2v0C95.8,48.7,95.6,48.8,95.4,48.9z"/>
	<path class="st1" d="M74.7,16.4c0.2,0.2,0.4,0.3,0.6,0.5c0.2,0.2,0.4,0.4,0.7,0.7c0.1,0,0.1-0.1,0.1-0.1L76,17.3
		c-0.1-0.1-0.2-0.3-0.2-0.4c0.1-0.3,0.8-1,1-1.3l1.2-1.3c0.2-0.2,0.3-0.3,0.4-0.4l0,0c0,0.2,0,1.1,0,1.4l-0.1,2.8
		c0,1.1,0,1.4-0.1,1.6c0.1,0.1,0.1,0.1,0.2,0c0.1-0.2,0.8-0.9,0.9-1.1l1.3-1.4c0.2-0.3,0.9-1,1.2-1.1c0.1,0,0.2,0,0.4,0.2l0.1,0.1
		c0.1,0,0.1-0.1,0.1-0.2c0,0,0,0,0,0c-0.2-0.2-0.4-0.3-0.6-0.5c-0.2-0.2-0.4-0.4-0.7-0.7c-0.1,0-0.2,0.1-0.1,0.1l0.1,0.1
		c0.2,0.2,0.3,0.4,0.3,0.5c-0.1,0.3-0.7,1.1-1,1.3l-1.2,1.3c-0.1,0.1-0.2,0.2-0.3,0.2l0,0c0-0.5,0-1.1,0-2l0-1.2
		c0-0.4,0-1.8,0.2-2.2c-0.1-0.1-0.2-0.1-0.3-0.2c-0.1-0.1-0.4-0.4-0.7-0.6c-0.1,0-0.2,0.1-0.1,0.1l0.1,0.1c0.1,0.1,0.2,0.3,0.2,0.5
		c0,0.2-0.1,0.4-0.3,0.5l-1.6,1.7c-0.3,0.3-0.9,1-1.2,1.1c-0.1,0-0.2,0-0.4-0.1l-0.2-0.1C74.7,16.3,74.7,16.4,74.7,16.4z"/>
	<path class="st1" d="M89.7,37.8c0.1,0.1,0.1,0.2,0.2,0.2c0.2,0.1,0.8,0.1,1.2,0c0-0.1,0-0.2,0-0.2c-0.5,0-1.3-0.2-1.6-1.2
		c-0.4-1.2,0.1-2.6,1.7-3.1c1.6-0.5,2.6,0.2,3,1.4c0.4,1.1-0.1,1.6-0.6,1.9c0,0.1,0,0.2,0.1,0.2c0.4-0.2,0.9-0.4,1.1-0.5
		c0-0.1,0-0.1,0-0.2c0-0.5-0.1-0.9-0.3-1.4c-0.3-0.8-0.7-1.4-1.3-1.8c-0.6-0.4-1.5-0.6-2.3-0.3c-1,0.3-1.5,1-1.7,1.8
		c-0.2,0.7-0.1,1.4,0.1,2.1C89.3,37.1,89.6,37.7,89.7,37.8z"/>
	<path class="st1" d="M94.6,40.6l-2.8,0.5c-0.8,0.1-0.9,0.1-1.1-0.3l-0.1-0.2c-0.1,0-0.2,0-0.2,0.1c0.1,0.4,0.1,0.7,0.2,1l0.1,0.7
		c0.1,0.8,0.2,1.6,0.3,2c0.2,0.1,1.1,0.2,1.2,0.2c0.1,0,0.1-0.2,0-0.2c-0.4-0.1-0.7-0.3-0.9-0.4c-0.1-0.1-0.2-0.3-0.3-0.9
		c-0.1-0.6,0-0.8,0-0.9c0.1-0.2,0.3-0.2,0.8-0.3l2.8-0.5c0.8-0.1,1-0.1,1.1,0.3l0,0.2c0,0,0.2,0,0.2-0.1c-0.1-0.4-0.1-0.7-0.2-1
		c-0.1-0.3-0.1-0.6-0.1-1c0,0-0.2,0-0.2,0l0,0.2C95.6,40.4,95.4,40.5,94.6,40.6z"/>
	<path class="st1" d="M58.5,4.9c0.1-0.2,0.3-0.3,0.5-0.4c0.2-0.1,0.7,0,1,0.1l0.4,0.1c0.2,0.1,0.2,0.1,0.2,0.3l-0.9,3.5
		c-0.2,0.8-0.3,0.9-0.7,0.8l-0.3-0.1c-0.1,0-0.1,0.2-0.1,0.2c0.5,0.1,0.8,0.2,1.1,0.3c0.3,0.1,0.6,0.2,1,0.3c0.1,0,0.1-0.1,0.1-0.2
		l-0.2-0.1c-0.4-0.2-0.4-0.3-0.2-1.1l0.9-3.5c0.1-0.3,0.1-0.3,0.3-0.2L62,5.1c0.4,0.1,0.7,0.3,0.8,0.4c0.1,0.1,0.1,0.4,0,0.6
		c0,0.1,0.2,0.1,0.2,0c0-0.2,0.3-0.9,0.4-1.1c0,0-0.1-0.1-0.1-0.1c-0.2,0.2-0.2,0.2-0.7,0.1l-3.1-0.8C59.3,4.1,59,4,59,3.8
		c0,0-0.1,0-0.1,0c-0.2,0.4-0.4,0.7-0.6,1.1C58.3,4.9,58.4,4.9,58.5,4.9z"/>
	<path class="st1" d="M24.4,11.9c0-0.2,0-0.4,0-0.7c0.1-0.3,0.5-0.5,0.8-0.7l0.4-0.2c0.2-0.1,0.2-0.1,0.3,0.1l1.8,3.1
		c0.4,0.7,0.5,0.9,0.1,1.1l-0.2,0.2c0,0.1,0,0.2,0.1,0.2c0.4-0.3,0.7-0.4,1-0.6c0.3-0.2,0.5-0.3,0.9-0.5c0,0,0-0.2-0.1-0.2l-0.2,0.1
		c-0.4,0.2-0.5,0.1-0.9-0.6l-1.8-3.1c-0.1-0.2-0.1-0.2,0.1-0.4l0.5-0.3c0.4-0.2,0.7-0.3,0.9-0.3c0.1,0,0.3,0.2,0.5,0.4
		c0.1,0,0.2,0,0.2-0.1c-0.1-0.2-0.4-0.8-0.5-1.1c0,0-0.1,0-0.1,0.1c0,0.2-0.1,0.3-0.4,0.5l-2.8,1.6c-0.3,0.2-0.5,0.3-0.7,0.1
		c0,0-0.1,0.1-0.1,0.1c0.1,0.4,0.3,0.8,0.3,1.2C24.3,12,24.4,12,24.4,11.9z"/>
	<path class="st1" d="M70.6,14.2c1.3,0.8,3,0.4,3.8-1c0.7-1.2,0.6-2.8-1-3.8c-1.4-0.8-3.1-0.4-3.9,1C68.8,11.6,69.1,13.3,70.6,14.2z
		 M70.3,10.6c0.9-1.5,2.1-1.5,2.8-1c1.3,0.8,1.1,2.3,0.4,3.4c-0.8,1.4-2,1.5-2.8,1C69.5,13.2,69.7,11.6,70.3,10.6z"/>
	<path class="st1" d="M65,11.3c0.3,0.1,0.5,0.2,0.9,0.4c0.1,0,0.1-0.1,0.1-0.2l-0.2-0.1c-0.4-0.2-0.4-0.3-0.1-1.1l1.1-2.6
		c0.3-0.8,0.4-0.9,0.8-0.8L67.9,7c0.1,0,0.1-0.2,0.1-0.2c-0.4-0.1-0.6-0.2-0.9-0.4c-0.3-0.1-0.6-0.2-0.9-0.4C66,6,66,6.2,66,6.2
		l0.2,0.1c0.4,0.2,0.4,0.3,0.1,1.1l-1.1,2.6c-0.3,0.8-0.4,0.9-0.8,0.8l-0.2-0.1c-0.1,0-0.1,0.2-0.1,0.2C64.4,11.1,64.7,11.2,65,11.3
		z"/>
	<path class="st1" d="M54.1,8.7c0.3,0,0.6,0.1,1,0.1c0.1,0,0.1-0.2,0-0.2l-0.2,0c-0.5-0.1-0.5-0.2-0.4-1.1l0.3-2.8
		c0.1-0.8,0.1-1,0.6-1l0.2,0c0.1,0,0.1-0.2,0-0.2c-0.4,0-0.7-0.1-1-0.1c-0.3,0-0.6-0.1-1-0.1c-0.1,0-0.1,0.2,0,0.2l0.2,0
		c0.5,0.1,0.5,0.2,0.4,1.1l-0.3,2.8c-0.1,0.8-0.1,1-0.6,1h-0.2c-0.1,0-0.1,0.2,0,0.2C53.5,8.7,53.7,8.7,54.1,8.7z"/>
	<path class="st1" d="M28.6,85.6c-0.4-0.3-0.6-0.4-0.9-0.6l-0.6-0.4c-0.6-0.4-1.2-0.8-1.8-1.2c-0.3,0.2-0.6,0.5-0.9,0.7
		c0,0.1,0.1,0.2,0.1,0.2c0.4-0.2,0.7-0.3,0.9-0.3c0.2,0,0.4,0.1,0.9,0.5c0.6,0.4,0.7,0.6,0.7,0.7c0,0.2-0.1,0.4-0.3,0.8l-0.6,0.9
		c-0.1,0.2-0.1,0.2-0.3,0l-0.4-0.3c-0.3-0.2-0.4-0.3-0.5-0.4c-0.1-0.1-0.1-0.3,0-0.4l0.1-0.3c0-0.1-0.1-0.1-0.2-0.1
		c-0.1,0.1-0.2,0.4-0.4,0.7c-0.2,0.3-0.4,0.5-0.5,0.6c0,0.1,0.1,0.1,0.2,0.1l0.2-0.2c0.1-0.1,0.2-0.2,0.3-0.1c0.1,0,0.3,0.2,0.6,0.3
		l0.4,0.3c0.2,0.1,0.2,0.2,0.1,0.3l-0.9,1.3c-0.2,0.3-0.2,0.3-0.4,0.1l-0.5-0.3c-0.3-0.2-0.5-0.4-0.6-0.5c-0.3-0.3-0.2-0.6-0.1-1
		c0-0.1-0.1-0.1-0.2-0.1c-0.2,0.3-0.5,0.8-0.5,1c0.1,0,0.5,0.3,0.9,0.6l1.2,0.9c0.3,0.2,0.5,0.3,0.8,0.6c0.1,0,0.1-0.1,0.1-0.2
		l-0.1-0.1c-0.4-0.3-0.3-0.4,0.2-1.1l1.6-2.4c0.5-0.7,0.6-0.8,1-0.5l0.2,0.1C28.6,85.7,28.6,85.6,28.6,85.6z"/>
	<path class="st1" d="M22,80.7c-0.6,0.3-1.7,0.6-2.4,0.8c0.2-0.6,0.7-1.6,1-2.2c0,0,0-0.1-0.1-0.1c0,0,0,0-0.1-0.1
		c-0.9,0.3-1.7,0.6-2.5,0.9l-1.4,0.5c-1.1,0.4-1.4,0.5-1.7,0.2l-0.1-0.1c-0.1,0-0.2,0.1-0.1,0.1c0.2,0.1,0.3,0.3,0.5,0.5
		c0.2,0.2,0.3,0.4,0.5,0.6c0.1,0,0.1,0,0.1-0.1l-0.1-0.2c-0.1-0.1-0.1-0.2,0-0.3c0.1-0.1,0.4-0.2,0.7-0.3c0.1-0.1,1.2-0.5,1.6-0.6
		c0.6-0.2,1.2-0.4,1.7-0.6c-0.3,0.6-0.5,1.2-0.8,1.8c0,0.1-0.1,0.1-0.1,0.2c-0.1,0-0.1,0.1-0.2,0.1c-0.3,0.1-1,0.3-1.4,0.4
		c-0.4,0.1-0.7,0.2-1,0l-0.2-0.2c-0.1,0-0.2,0.1-0.1,0.1c0.1,0.1,0.4,0.4,0.5,0.6c0.2,0.2,0.4,0.4,0.5,0.6c0.1,0,0.1,0,0.2-0.1
		L17.1,83c-0.2-0.2-0.1-0.3,0.6-0.5c0.4-0.2,0.8-0.3,1.1-0.4c-0.2,0.5-0.4,1-0.6,1.4c-0.2,0.4-0.2,0.4-0.4,0.2l-0.2-0.1
		c-0.1,0-0.2,0.1-0.1,0.1c0.1,0.1,0.3,0.3,0.6,0.6c0.2,0.2,0.4,0.5,0.6,0.7c0.1,0,0.1,0,0.2-0.1l-0.1-0.2c-0.2-0.2-0.1-0.4,0-0.7
		c0.3-0.7,0.5-1.3,0.8-1.9c0-0.1,0.1-0.1,0.1-0.2c0,0,0.2-0.1,0.3-0.1c0.5-0.1,1-0.3,1.4-0.4c-0.4,1-0.8,2-1.3,3
		c-0.3,0.6-0.4,1-0.5,1c-0.1,0.1-0.2,0-0.3-0.1L19,85.2c-0.1,0-0.2,0.1-0.1,0.1c0.2,0.2,0.5,0.5,0.6,0.7c0.2,0.2,0.4,0.5,0.5,0.6
		c0.1,0,0.2,0,0.2-0.1l-0.1-0.2c-0.2-0.3-0.1-0.5,0-0.8c0.5-1.1,1-2.2,1.5-3.4c0.1-0.2,0.4-0.9,0.6-1.3C22.2,80.9,22.1,80.8,22,80.7
		C22.1,80.8,22.1,80.8,22,80.7z"/>
	<path class="st1" d="M7.1,60.6c1-0.2,1.7-0.8,2-1.5c0.3-0.6,0.3-1.3,0.2-2.1C9.2,56.6,9,56,8.9,55.9c0-0.1-0.1-0.2-0.1-0.3
		c-0.2-0.1-0.7-0.2-1.1-0.2c-0.1,0,0,0.2,0,0.2c0.5,0.1,1.2,0.4,1.4,1.5c0.2,1.3-0.5,2.5-2.2,2.8c-1.6,0.3-2.6-0.6-2.8-1.8
		c-0.2-1.1,0.4-1.6,0.9-1.8C5,56.2,5,56,4.9,56c-0.5,0.1-1,0.3-1.1,0.3c0,0.1,0,0.2,0,0.2c0,0.5,0,1,0.1,1.4c0.1,0.8,0.5,1.5,1,2
		C5.4,60.5,6.2,60.8,7.1,60.6z"/>
	<path class="st1" d="M10.5,62.5c0,0-0.2,0-0.2,0l0,0.2c0.1,0.5,0,0.5-0.8,0.8l-2.7,0.9c-0.8,0.3-0.9,0.3-1.1-0.2L5.6,64
		c0,0-0.2,0-0.2,0.1c0.1,0.4,0.2,0.6,0.3,0.9c0.1,0.3,0.2,0.6,0.3,1c0,0,0.2,0,0.2,0l0-0.2c-0.1-0.5,0-0.5,0.8-0.8l2.7-0.9
		c0.8-0.3,0.9-0.3,1.1,0.2l0.1,0.2c0.1,0,0.2,0,0.2-0.1c-0.1-0.4-0.2-0.6-0.3-1C10.7,63.1,10.6,62.9,10.5,62.5z"/>
	<path class="st1" d="M89.5,69.8c-0.9-0.5-1.8-0.5-2.5-0.2c-0.6,0.3-1.1,0.8-1.5,1.4c-0.3,0.4-0.5,1-0.5,1.2c0,0.1,0,0.2-0.1,0.3
		c0.1,0.2,0.4,0.6,0.7,0.9c0.1,0,0.1-0.1,0.1-0.2c-0.3-0.4-0.7-1.1-0.1-2c0.7-1.1,2-1.6,3.5-0.7c1.4,0.9,1.6,2.1,0.9,3.2
		c-0.6,1-1.3,1-1.8,0.8c-0.1,0-0.1,0.1-0.1,0.2c0.5,0.2,0.9,0.4,1.1,0.5c0-0.1,0.1-0.1,0.1-0.2c0.3-0.3,0.6-0.7,0.9-1.1
		c0.4-0.7,0.6-1.5,0.5-2.2C90.7,71,90.3,70.3,89.5,69.8z"/>
	<path class="st1" d="M93.7,66.3l-0.1,0.2c-0.2,0.4-0.4,0.4-1.1,0.1l-2.6-1.1c-0.8-0.3-0.9-0.4-0.8-0.8l0.1-0.2
		c0-0.1-0.2-0.1-0.2-0.1c-0.1,0.4-0.2,0.6-0.4,0.9c-0.1,0.3-0.2,0.5-0.4,0.9c0,0.1,0.1,0.1,0.2,0.1l0.1-0.2c0.2-0.4,0.3-0.4,1.1-0.1
		l2.6,1.1c0.8,0.3,0.9,0.4,0.8,0.8l-0.1,0.2c0,0.1,0.2,0.1,0.2,0.1c0.1-0.4,0.2-0.6,0.4-0.9c0.1-0.3,0.2-0.6,0.4-0.9
		C93.8,66.4,93.7,66.3,93.7,66.3z"/>
	<path class="st1" d="M34.9,88.7c-0.3-0.1-0.5-0.3-0.8-0.4c-0.1,0-0.1,0.1-0.1,0.2l0.2,0.1c0.2,0.1,0.3,0.2,0.3,0.3
		c0,0.3-0.4,1.2-0.6,1.6l-0.7,1.6c-0.1,0.2-0.2,0.4-0.3,0.5l0,0c-0.1-0.2-0.3-1.1-0.4-1.4l-0.8-2.7c-0.3-1-0.4-1.4-0.4-1.5
		c-0.1,0-0.1,0-0.2,0c-0.1,0.2-0.5,1.1-0.6,1.3l-0.8,1.7c-0.2,0.3-0.6,1.2-0.8,1.4c-0.1,0-0.2,0-0.5,0l-0.1,0
		c-0.1,0-0.1,0.1-0.1,0.2c0,0,0,0,0,0c0.3,0.1,0.4,0.2,0.8,0.3c0.3,0.1,0.5,0.3,0.8,0.4c0.1,0,0.1-0.1,0.1-0.2L29.9,92
		c-0.3-0.2-0.4-0.3-0.4-0.4c0-0.3,0.4-1.2,0.6-1.6l0.7-1.6c0.1-0.2,0.1-0.3,0.2-0.3l0,0c0.2,0.5,0.3,1.1,0.6,1.9l0.3,1.1
		c0.1,0.4,0.5,1.7,0.5,2.2c0.1,0,0.2,0.1,0.3,0.1c0.1,0.1,0.5,0.2,0.8,0.4c0.1,0,0.1-0.1,0.1-0.2l-0.1-0.1c-0.2-0.1-0.3-0.2-0.4-0.4
		c-0.1-0.2,0-0.4,0.1-0.6l1-2.1c0.2-0.3,0.6-1.2,0.8-1.4c0.1-0.1,0.2-0.1,0.4,0l0.2,0.1c0.1,0,0.1-0.1,0.1-0.2
		C35.4,89,35.2,88.9,34.9,88.7z"/>
	<path class="st1" d="M56.2,96.4l-0.2,0c-0.3,0-0.4-0.2-0.4-0.8l-0.1-3c0-0.8,0-0.9,0.5-1l0.2,0c0-0.1,0-0.2,0-0.2c-0.4,0-0.7,0-1,0
		c-0.3,0-0.8-0.1-1.3,0c-0.6,0-1.3,0.1-1.8,0.4c-0.9,0.5-1.4,1.4-1.4,2.4c0,1.1,0.6,2,1.7,2.3c0.5,0.2,1.1,0.2,1.8,0.2
		c0.7,0,1.3-0.1,2-0.1C56.2,96.6,56.2,96.4,56.2,96.4z M54.9,96.3c-0.1,0.1-0.3,0.1-0.8,0.1c-2.1,0-2.6-1.4-2.6-2.3
		c0-1.5,0.6-2.5,2.2-2.6c0.5,0,0.8,0.1,1,0.3c0.1,0.2,0.2,0.4,0.2,0.9l0.1,3C54.9,96.1,54.9,96.3,54.9,96.3z"/>
	<path class="st1" d="M19.9,17.1c-0.3,0.8-0.4,1.5,0.1,2.2c0.4,0.5,1.3,0.8,2.1,0.1c0.5-0.5,0.7-1.2,0.7-1.9
		c0.2,0.1,0.7,0.2,0.8,0.3c0.2,0,0.5-0.1,0.8-0.4c0.4-0.3,0.6-0.7,0.6-1.2c0-0.1-0.1-0.1-0.1-0.1c0,0,0,0,0,0c0,0.3-0.2,0.5-0.4,0.7
		c-0.3,0.2-0.6,0.4-1.4,0.2c-0.1,0-0.2-0.1-0.5-0.1c0-0.6-0.1-1.1-0.1-1.6c-0.1-0.5-0.1-0.9,0.1-1.3l0.2-0.3c0-0.1-0.1-0.1-0.1-0.1
		c-0.2,0.2-0.4,0.4-0.8,0.8l-0.5,0.4c0,0.1,0,0.1,0.1,0.2c0,0,0,0,0,0l0.2-0.2c0.1-0.1,0.2-0.1,0.2,0c0,0,0.1,0.2,0.1,0.5
		c0.1,0.5,0.2,1.1,0.3,1.6c-0.9-0.3-1.7-0.3-2.2-0.2c0.2-0.4,0.3-0.9,0-1.3c-0.4-0.4-0.9-0.5-1.4-0.1c-0.4,0.4-0.6,1.1-0.2,1.6
		C19.1,17.1,19.6,17.1,19.9,17.1z M22.6,17.4c0,0.6-0.2,1.1-0.6,1.5c-0.5,0.5-1.2,0.4-1.7-0.2c-0.4-0.5-0.3-1.2-0.2-1.6
		C21,17,21.9,17.1,22.6,17.4z M19.1,15.4c0.3-0.2,0.7-0.1,0.9,0.2c0.2,0.3,0.3,0.6,0.2,0.9c-0.5,0.1-0.8,0-1.1-0.2
		C18.9,16,18.9,15.6,19.1,15.4z"/>
	<path class="st1" d="M6.8,35.6c0.6,0.2,1.2-0.1,1.6-0.3l0.7-0.5c0.6-0.4,0.9-0.4,1.3-0.2c0.5,0.2,0.8,0.6,0.5,1.3
		c-0.3,0.9-1.2,0.9-1.6,0.9c-0.1,0-0.1,0.1,0,0.2c0.4,0.1,0.9,0.2,1.1,0.2c0.1-0.1,0.5-0.4,0.7-1.1c0.4-1,0-1.8-0.8-2.1
		c-0.7-0.3-1.3,0-1.8,0.4l-0.6,0.5c-0.3,0.2-0.7,0.5-1.2,0.3c-0.3-0.1-0.8-0.5-0.5-1.2c0.3-0.7,0.8-0.7,1.2-0.7c0.1,0,0.1-0.2,0-0.2
		c-0.3-0.1-0.8-0.2-1-0.2c0,0.1-0.1,0.2-0.1,0.2c-0.1,0.2-0.3,0.4-0.4,0.7C5.7,34.6,6.1,35.3,6.8,35.6z"/>
	<path class="st1" d="M95.4,54.2c-0.7-0.1-1.2,0.3-1.5,0.7l-0.6,0.7c-0.5,0.5-0.9,0.5-1.2,0.5c-0.5-0.1-0.9-0.5-0.8-1.1
		c0.1-0.9,1-1.1,1.4-1.2c0.1,0,0.1-0.1,0-0.2c-0.4,0-1,0-1.1,0.1c-0.1,0.1-0.4,0.5-0.5,1.2c-0.1,1,0.4,1.8,1.2,1.9
		c0.8,0.1,1.3-0.3,1.7-0.8l0.5-0.6c0.2-0.3,0.6-0.6,1.1-0.5c0.4,0.1,0.9,0.3,0.7,1.1c-0.1,0.8-0.7,0.9-1.1,1c-0.1,0,0,0.2,0,0.2
		c0.3,0,0.8,0,1,0c0-0.1,0-0.2,0.1-0.3c0.1-0.2,0.2-0.5,0.2-0.7C96.6,55,96.1,54.3,95.4,54.2z"/>
	<path class="st1" d="M94.4,60.3c-0.6-0.2-1.2,0.1-1.6,0.5l-0.7,0.6c-0.5,0.5-0.9,0.4-1.3,0.3c-0.5-0.1-0.8-0.6-0.6-1.2
		c0.3-0.9,1.1-1,1.5-1c0.1,0,0.1-0.1,0-0.2c-0.4-0.1-0.9-0.1-1.1-0.1c-0.1,0.1-0.4,0.5-0.6,1.1c-0.3,1,0.1,1.8,1,2
		c0.7,0.2,1.3-0.1,1.8-0.5l0.6-0.5c0.3-0.2,0.7-0.5,1.1-0.4c0.4,0.1,0.8,0.4,0.6,1.2c-0.2,0.7-0.8,0.8-1.2,0.8c-0.1,0-0.1,0.2,0,0.2
		c0.3,0.1,0.8,0.1,1,0.1c0-0.1,0.1-0.2,0.1-0.3c0.1-0.2,0.2-0.4,0.3-0.7C95.5,61.3,95.1,60.5,94.4,60.3z"/>
	<path class="st1" d="M3.6,44.1l0-0.1c0.1-0.2,0.2-0.4,0.3-0.4c0.2-0.1,0.4-0.1,0.6-0.1L6.8,44c0.4,0.1,1.3,0.3,1.6,0.4
		c0.1,0.1,0.1,0.2,0.1,0.4l0,0.2c0,0.1,0.1,0.1,0.2,0c0-0.3,0.1-0.5,0.1-0.8c0.1-0.3,0.1-0.6,0.2-0.9c0-0.1-0.1-0.1-0.2-0.1
		l-0.1,0.2c-0.1,0.2-0.1,0.3-0.2,0.4c-0.3,0.1-1.3-0.1-1.7-0.2l-1.7-0.4c-0.2-0.1-0.4-0.1-0.5-0.1l0,0c0.2-0.1,1-0.5,1.3-0.7
		l2.5-1.4c0.9-0.5,1.2-0.7,1.4-0.8c0-0.1,0-0.1-0.1-0.2c-0.2,0-1.1-0.2-1.4-0.3l-1.9-0.4c-0.4-0.1-1.3-0.3-1.6-0.5
		c-0.1,0-0.1-0.2-0.1-0.5l0-0.1c0-0.1-0.1-0.1-0.2,0c0,0,0,0,0,0c0,0.3-0.1,0.5-0.1,0.8c-0.1,0.3-0.1,0.6-0.2,0.9
		c0,0.1,0.1,0.1,0.2,0.1l0-0.1c0.1-0.3,0.2-0.4,0.3-0.5c0.3-0.1,1.3,0.1,1.7,0.2l1.7,0.4c0.2,0,0.3,0.1,0.3,0.1l0,0
		c-0.5,0.3-1,0.6-1.7,1l-1,0.6c-0.3,0.2-1.6,0.9-2,1c0,0.1,0,0.2-0.1,0.4c0,0.1-0.1,0.6-0.2,0.9C3.5,44.1,3.6,44.2,3.6,44.1z"/>
	<path class="st1" d="M5.9,52.9c1.4,0,2.7-1,2.8-2.8c0-1.5-1.1-2.8-2.8-2.8c-1.4,0-2.8,0.9-2.8,2.7C3.1,51.7,4.3,52.9,5.9,52.9z
		 M6.1,48.1c1.6,0,2.3,1,2.3,1.9c0,1.6-1.6,2.1-2.8,2.1c-1.8,0-2.3-1.1-2.3-2C3.4,48.6,4.8,48.1,6.1,48.1z"/>
	<g id="Layer_2" class="st2">
		<path class="st3" d="M96.3,31.2c-2.5-6.2-6.2-11.8-11-16.5S75,6.2,68.8,3.7C62.8,1.2,56.4,0,50,0l0,0c-6.4,0-12.8,1.2-18.8,3.7
			c-6.2,2.5-11.8,6.2-16.5,11S6.2,25,3.7,31.2c-4.9,12.1-4.9,25.6,0,37.6c2.5,6.2,6.2,11.8,11,16.5c4.8,4.8,10.3,8.5,16.5,11
			c12.1,4.9,25.6,4.9,37.6,0c6.2-2.5,11.8-6.2,16.5-11c4.8-4.8,8.5-10.3,11-16.5C101.2,56.7,101.2,43.3,96.3,31.2L96.3,31.2z
			 M95.8,68.6C93.3,74.7,89.7,80.2,85,85c-4.7,4.7-10.2,8.4-16.4,10.9c-11.9,4.8-25.3,4.8-37.2,0C25.3,93.3,19.8,89.7,15,85
			c-4.7-4.7-8.4-10.2-10.9-16.4c-4.8-11.9-4.8-25.3,0-37.2C6.7,25.3,10.3,19.8,15,15S25.3,6.7,31.4,4.2c11.9-4.8,25.3-4.8,37.2,0
			C74.7,6.7,80.2,10.3,85,15c4.7,4.7,8.4,10.2,10.9,16.4C100.6,43.3,100.6,56.7,95.8,68.6L95.8,68.6z"/>
	</g>
	<g id="Layer_3" class="st2">
		<path class="st3" d="M88.9,50c0-21.4-17.4-38.8-38.8-38.7c-21.4,0-38.8,17.4-38.7,38.8c0,21.4,17.4,38.8,38.8,38.7
			c15.8,0,30-9.6,35.9-24.2C87.9,60,88.9,55,88.9,50z M74.2,20.6V28c0,4.2,0.2,5.9,0.8,7c0.7,1.2,1.9,1.4,3.5,1.5l2.5,0.3
			c0.2,0.2,0.2,0.6,0.2,1c0,0.2-0.1,0.4-0.3,0.5c-4.4-0.2-7.5-0.2-10.5-0.2c-3,0-6.2,0.1-11.1,0.2c-0.1-0.1-0.2-0.4-0.3-0.7
			c0-0.4,0.1-0.7,0.2-0.8l2.9-0.4h0c1.7-0.2,2.8-0.4,3.5-1.5c0.7-1.2,0.8-3.3,0.8-6.9V15.3c1,0.5,2,1,3,1.6l2.4,1.5
			c0.8,0.6,1.6,1.1,2.3,1.8C74.2,20.3,74.2,20.5,74.2,20.6L74.2,20.6z M18.3,71.6c0-0.5-0.1-1-0.1-1.5c0-3.4,1.2-6.8,3.6-9.9
			c1.8-2.4,4.4-4.5,7-5.8c3.6,2.4,7.4,5.7,10.9,9.6c3.4,3.7,6.4,7.8,8.7,11.7c-2.2,2.6-4.7,4.6-7.3,6.1c-2.7,1.5-5.5,2.3-8.3,2.5
			c-3.7-1.8-7.1-4.3-10-7.2C21.2,75.4,19.7,73.6,18.3,71.6z M40.9,87.3c0.1-0.1,0.3-0.2,0.4-0.2c3-1.9,6-4.4,9.1-7.9
			c2,3.4,4.5,7.5,5.7,8.6c0,0,0.1,0.1,0.1,0.1C51.2,88.7,46,88.5,40.9,87.3L40.9,87.3z M64.4,85.5c-2.4,1-4.9,1.7-7.4,2.2
			c-0.2-0.1-0.4-0.3-0.5-0.4c-0.9-0.8-3-3.9-5.8-8.8l-0.2-0.3l-0.3,0.3c-3.1,3.5-6.2,6.2-9.2,8.1c-0.3,0.2-0.6,0.4-0.9,0.5
			c-1.6-0.4-3.1-0.9-4.6-1.5c-0.6-0.2-1.1-0.5-1.6-0.7c2.5-0.3,5.1-1.1,7.5-2.5c2.7-1.5,5.2-3.7,7.5-6.4l0.1-0.2L49,75.7
			c-2.3-4-5.4-8.2-8.9-12c-3.6-3.9-7.4-7.3-11.2-9.8l-0.1-0.1l-0.1,0.1c-2.7,1.4-5.4,3.6-7.3,6.1c-2.4,3.1-3.7,6.6-3.7,10.2
			c0,0.2,0,0.4,0,0.6c-1.3-2-2.4-4.1-3.3-6.3c-0.2-0.4-0.3-0.9-0.5-1.3c0.5-0.8,1-1.5,1.6-2.2c2.4-2.9,5.8-5.5,10.9-8.6l0.4-0.2
			l-0.4-0.2c-2.1-1.5-3.7-3-4.9-4.6c-1.6-2.1-2.3-4.4-2.3-6.8c0-3.5,1.4-6.7,4-9.1c2.5-2.3,5.8-3.6,9.1-3.6c1.8,0,3.4,0.3,4.9,0.8
			c1.5,0.5,2.7,1.3,3.8,2.3c2.2,2,3.4,4.8,3.4,8c0,2.7-0.9,4.8-2.7,6.7c-1.7,1.7-3.9,3-6.1,4.2l-0.7,0.4l-0.4,0.2l0.4,0.2
			c3.5,2.2,10.6,7.5,18.2,18.7l0.2,0.3l0.2-0.3c2.1-2.9,7.2-11.1,10-16.8c1.4-2.9,2.1-4.6,2.1-5.4c0-0.8-1-1.5-2.7-1.7l-3.2-0.4
			c-0.2-0.2-0.3-0.6-0.3-1c0-0.2,0.1-0.5,0.4-0.8h7.8c7.3,0,11-0.2,13.4-0.4c0.2,0.2,0.3,0.4,0.3,0.7c0.1,0.4,0,0.8-0.2,1l-4.1,0.7
			c-2.3,0.4-4.4,1.6-6.3,3.6c-1.7,1.8-3.1,4.1-4.5,6.4c-0.1,0.2-0.2,0.4-0.3,0.5c-2.9,4.7-6.5,9.6-10.2,14.8L54.9,72l-0.1,0.2
			l0.1,0.2c1.2,1.9,1.8,2.8,2.4,3.7c0.2,0.3,0.5,0.7,0.8,1.1c2.3,3.6,4.8,6,7.5,7.3c0.2,0.1,0.5,0.2,0.7,0.3
			C65.6,85,65,85.3,64.4,85.5L64.4,85.5z M77.1,77.1c-3,3-6.4,5.5-10.2,7.3c-0.4-0.1-0.8-0.3-1.1-0.5c-2.6-1.3-5-3.7-7.3-7.1
			c-0.3-0.4-0.5-0.8-0.8-1.1c-0.6-0.9-1.2-1.8-2.3-3.5l0.8-1c3.8-5.2,7.3-10.1,10.3-14.8c0.1-0.2,0.2-0.4,0.3-0.5
			c2.9-4.6,5.6-9,10.5-9.8l4.3-0.7l0.1-0.1c0.3-0.4,0.5-1,0.4-1.5c-0.1-0.5-0.3-0.9-0.6-1.2l-0.1-0.1l-0.1,0
			c-2.4,0.2-6.1,0.4-13.5,0.4h-7.9l-0.1,0c-0.4,0.2-0.7,0.7-0.7,1.2c-0.1,0.6,0.1,1.2,0.5,1.5l0.1,0.1l3.4,0.4
			c1.5,0.2,2.2,0.7,2.2,1.2c0,0.5-0.4,1.7-2.1,5.2c-2.6,5.3-7.4,13.3-9.7,16.4c-7.4-10.7-14.1-16-17.8-18.3l0.3-0.2
			C40.4,47.8,45,45.2,45,39c0-3.3-1.3-6.3-3.5-8.4c-1.1-1.1-2.5-1.9-4-2.4c-1.6-0.6-3.3-0.9-5.1-0.9c-3.5,0-6.9,1.4-9.5,3.7
			c-2.7,2.5-4.2,5.9-4.2,9.5c0,2.5,0.8,4.9,2.5,7.1c1.2,1.6,2.7,3,4.7,4.5c-5,3-8.3,5.6-10.7,8.5c-0.5,0.6-1,1.2-1.4,1.9
			c-6.9-20.1,3.8-41.9,23.9-48.7c8.7-3,18.3-2.7,26.8,0.7c0.5,0.2,0.9,0.4,1.4,0.6V28c0,3.4-0.1,5.6-0.7,6.6c-0.5,0.9-1.4,1-3.1,1.2
			l-3.1,0.4l-0.1,0c-0.4,0.3-0.5,0.9-0.4,1.4c0,0.6,0.3,1,0.6,1.2l0.1,0h0.1c4.9-0.2,8.1-0.2,11.2-0.2c3,0,6.2,0.1,10.6,0.2l0.1,0
			l0.1,0c0.3-0.2,0.5-0.5,0.6-1c0.1-0.7-0.1-1.3-0.4-1.6l-0.1-0.1l-2.7-0.3c-1.7-0.2-2.6-0.3-3.1-1.2c-0.6-1.1-0.7-3.3-0.7-6.7v-7.3
			c0.8,0.7,1.6,1.4,2.4,2.2C92.1,37.8,92.1,62.1,77.1,77.1C77.2,77.1,77.1,77.1,77.1,77.1z"/>
		<path class="st3" d="M27.3,43.7c-1.3-1.7-1.9-3.5-1.9-5.5c0-1.9,0.7-3.8,1.8-5.2c1.2-1.5,2.9-2.4,4.8-2.4v-0.6
			c-2,0-3.9,0.9-5.3,2.6c-1.2,1.5-1.9,3.5-1.9,5.6c0,2.1,0.7,4,2,5.8c1.3,1.7,3.3,3.4,6,4.9l0.3-0.5C30.5,47,28.6,45.4,27.3,43.7z"
			/>
	</g>
</g>
<g id="圖層_2">
	<g>
		<g id="Layer_2_2_">
			<path class="st3" d="M96.3,31.2c-2.5-6.2-6.2-11.8-11-16.5C80.6,9.9,75,6.2,68.8,3.7C62.8,1.2,56.4,0,50,0l0,0
				c-6.4,0-12.8,1.2-18.8,3.7c-6.2,2.5-11.8,6.2-16.5,11S6.2,25,3.7,31.2c-4.9,12.1-4.9,25.6,0,37.6c2.5,6.2,6.2,11.8,11,16.5
				s10.3,8.5,16.5,11c12.1,4.9,25.6,4.9,37.6,0c6.2-2.5,11.8-6.2,16.5-11c4.8-4.8,8.5-10.3,11-16.5C101.2,56.7,101.2,43.3,96.3,31.2
				L96.3,31.2z M95.8,68.6C93.3,74.7,89.7,80.2,85,85c-4.7,4.7-10.2,8.4-16.4,10.9c-11.9,4.8-25.3,4.8-37.2,0
				C25.3,93.3,19.8,89.7,15,85c-4.7-4.7-8.4-10.2-10.9-16.4c-4.8-11.9-4.8-25.3,0-37.2C6.7,25.3,10.3,19.8,15,15S25.3,6.7,31.4,4.2
				c11.9-4.8,25.3-4.8,37.2,0C74.7,6.7,80.2,10.3,85,15c4.7,4.7,8.4,10.2,10.9,16.4C100.6,43.3,100.6,56.7,95.8,68.6L95.8,68.6z"/>
		</g>
		<g id="Layer_3_2_">
			<path class="st3" d="M88.9,50c0-21.4-17.4-38.8-38.8-38.7S11.3,28.7,11.3,50.1c0,21.4,17.4,38.8,38.8,38.7
				c15.8,0,30-9.6,35.9-24.2C87.9,60,88.9,55,88.9,50z M74.2,20.6V28c0,4.2,0.2,5.9,0.8,7c0.7,1.2,1.9,1.4,3.5,1.5l2.5,0.3
				c0.2,0.2,0.2,0.6,0.2,1c0,0.2-0.1,0.4-0.3,0.5c-4.4-0.2-7.5-0.2-10.5-0.2c-3,0-6.2,0.1-11.1,0.2c-0.1-0.1-0.2-0.4-0.3-0.7
				c0-0.4,0.1-0.7,0.2-0.8l2.9-0.4h0c1.7-0.2,2.8-0.4,3.5-1.5c0.7-1.2,0.8-3.3,0.8-6.9V15.3c1,0.5,2,1,3,1.6l2.4,1.5
				c0.8,0.6,1.6,1.1,2.3,1.8C74.2,20.3,74.2,20.5,74.2,20.6L74.2,20.6z M18.3,71.6c0-0.5-0.1-1-0.1-1.5c0-3.4,1.2-6.8,3.6-9.9
				c1.8-2.4,4.4-4.5,7-5.8c3.6,2.4,7.4,5.7,10.9,9.6c3.4,3.7,6.4,7.8,8.7,11.7c-2.2,2.6-4.7,4.6-7.3,6.1c-2.7,1.5-5.5,2.3-8.3,2.5
				c-3.7-1.8-7.1-4.3-10-7.2C21.2,75.4,19.7,73.6,18.3,71.6z M40.9,87.3c0.1-0.1,0.3-0.2,0.4-0.2c3-1.9,6-4.4,9.1-7.9
				c2,3.4,4.5,7.5,5.7,8.6c0,0,0.1,0.1,0.1,0.1C51.2,88.7,46,88.5,40.9,87.3L40.9,87.3z M64.4,85.5c-2.4,1-4.9,1.7-7.4,2.2
				c-0.2-0.1-0.4-0.3-0.5-0.4c-0.9-0.8-3-3.9-5.8-8.8l-0.2-0.3l-0.3,0.3c-3.1,3.5-6.2,6.2-9.2,8.1c-0.3,0.2-0.6,0.4-0.9,0.5
				c-1.6-0.4-3.1-0.9-4.6-1.5c-0.6-0.2-1.1-0.5-1.6-0.7c2.5-0.3,5.1-1.1,7.5-2.5c2.7-1.5,5.2-3.7,7.5-6.4l0.1-0.2L49,75.7
				c-2.3-4-5.4-8.2-8.9-12c-3.6-3.9-7.4-7.3-11.2-9.8l-0.1-0.1l-0.1,0.1c-2.7,1.4-5.4,3.6-7.3,6.1c-2.4,3.1-3.7,6.6-3.7,10.2
				c0,0.2,0,0.4,0,0.6c-1.3-2-2.4-4.1-3.3-6.3c-0.2-0.4-0.3-0.9-0.5-1.3c0.5-0.8,1-1.5,1.6-2.2c2.4-2.9,5.8-5.5,10.9-8.6l0.4-0.2
				l-0.4-0.2c-2.1-1.5-3.7-3-4.9-4.6c-1.6-2.1-2.3-4.4-2.3-6.8c0-3.5,1.4-6.7,4-9.1c2.5-2.3,5.8-3.6,9.1-3.6c1.8,0,3.4,0.3,4.9,0.8
				c1.5,0.5,2.7,1.3,3.8,2.3c2.2,2,3.4,4.8,3.4,8c0,2.7-0.9,4.8-2.7,6.7c-1.7,1.7-3.9,3-6.1,4.2l-0.7,0.4l-0.4,0.2l0.4,0.2
				c3.5,2.2,10.6,7.5,18.2,18.7l0.2,0.3l0.2-0.3c2.1-2.9,7.2-11.1,10-16.8c1.4-2.9,2.1-4.6,2.1-5.4c0-0.8-1-1.5-2.7-1.7l-3.2-0.4
				c-0.2-0.2-0.3-0.6-0.3-1c0-0.2,0.1-0.5,0.4-0.8h7.8c7.3,0,11-0.2,13.4-0.4c0.2,0.2,0.3,0.4,0.3,0.7c0.1,0.4,0,0.8-0.2,1l-4.1,0.7
				c-2.3,0.4-4.4,1.6-6.3,3.6c-1.7,1.8-3.1,4.1-4.5,6.4c-0.1,0.2-0.2,0.4-0.3,0.5c-2.9,4.7-6.5,9.6-10.2,14.8L54.9,72l-0.1,0.2
				l0.1,0.2c1.2,1.9,1.8,2.8,2.4,3.7c0.2,0.3,0.5,0.7,0.8,1.1c2.3,3.6,4.8,6,7.5,7.3c0.2,0.1,0.5,0.2,0.7,0.3
				C65.6,85,65,85.3,64.4,85.5L64.4,85.5z M77.1,77.1c-3,3-6.4,5.5-10.2,7.3c-0.4-0.1-0.8-0.3-1.1-0.5c-2.6-1.3-5-3.7-7.3-7.1
				c-0.3-0.4-0.5-0.8-0.8-1.1c-0.6-0.9-1.2-1.8-2.3-3.5l0.8-1c3.8-5.2,7.3-10.1,10.3-14.8c0.1-0.2,0.2-0.4,0.3-0.5
				c2.9-4.6,5.6-9,10.5-9.8l4.3-0.7l0.1-0.1c0.3-0.4,0.5-1,0.4-1.5c-0.1-0.5-0.3-0.9-0.6-1.2l-0.1-0.1l-0.1,0
				c-2.4,0.2-6.1,0.4-13.5,0.4h-7.9l-0.1,0c-0.4,0.2-0.7,0.7-0.7,1.2c-0.1,0.6,0.1,1.2,0.5,1.5l0.1,0.1l3.4,0.4
				c1.5,0.2,2.2,0.7,2.2,1.2c0,0.5-0.4,1.7-2.1,5.2c-2.6,5.3-7.4,13.3-9.7,16.4c-7.4-10.7-14.1-16-17.8-18.3l0.3-0.2
				C40.4,47.8,45,45.2,45,39c0-3.3-1.3-6.3-3.5-8.4c-1.1-1.1-2.5-1.9-4-2.4c-1.6-0.6-3.3-0.9-5.1-0.9c-3.5,0-6.9,1.4-9.5,3.7
				c-2.7,2.5-4.2,5.9-4.2,9.5c0,2.5,0.8,4.9,2.5,7.1c1.2,1.6,2.7,3,4.7,4.5c-5,3-8.3,5.6-10.7,8.5c-0.5,0.6-1,1.2-1.4,1.9
				c-6.9-20.1,3.8-41.9,23.9-48.7c8.7-3,18.3-2.7,26.8,0.7c0.5,0.2,0.9,0.4,1.4,0.6V28c0,3.4-0.1,5.6-0.7,6.6
				c-0.5,0.9-1.4,1-3.1,1.2l-3.1,0.4l-0.1,0c-0.4,0.3-0.5,0.9-0.4,1.4c0,0.6,0.3,1,0.6,1.2l0.1,0h0.1c4.9-0.2,8.1-0.2,11.2-0.2
				c3,0,6.2,0.1,10.6,0.2l0.1,0l0.1,0c0.3-0.2,0.5-0.5,0.6-1c0.1-0.7-0.1-1.3-0.4-1.6l-0.1-0.1l-2.7-0.3c-1.7-0.2-2.6-0.3-3.1-1.2
				c-0.6-1.1-0.7-3.3-0.7-6.7v-7.3c0.8,0.7,1.6,1.4,2.4,2.2C92.1,37.8,92.1,62.1,77.1,77.1C77.2,77.1,77.1,77.1,77.1,77.1z"/>
			<path class="st3" d="M27.3,43.7c-1.3-1.7-1.9-3.5-1.9-5.5c0-1.9,0.7-3.8,1.8-5.2c1.2-1.5,2.9-2.4,4.8-2.4v-0.6
				c-2,0-3.9,0.9-5.3,2.6c-1.2,1.5-1.9,3.5-1.9,5.6c0,2.1,0.7,4,2,5.8c1.3,1.7,3.3,3.4,6,4.9l0.3-0.5C30.5,47,28.6,45.4,27.3,43.7z"
				/>
		</g>
		<path class="st3" d="M29,91.8l0.7,0.2l2.3-5l0.2,0.1l1.2,6l1.9-4.1l-0.8-0.5l0.1-0.3l1.9,0.9l-0.1,0.3l-0.7-0.2l-2.1,4.5l0,0.1
			l0.6,0.3L34,94.5l-1.1-0.5l-1.1-5.6l-1.8,3.9l0.8,0.5L30.8,93l-1.9-0.9L29,91.8z"/>
		<path class="st3" d="M24.5,84.8l0.9-1.2l3.7,2.5L29,86.4L28.2,86c-0.4,0.6-0.9,1.3-1.3,1.9l-0.2,0.4c-0.4,0.6-0.9,1.3-1.3,1.9
			l0.6,0.5l-0.2,0.2l-3.5-2.4l0.8-1.3l0.3,0.2L23,88.6l1.8,1.2c0.4-0.6,0.9-1.3,1.3-1.9l-1.2-0.8l-0.6,0.6l-0.3-0.2l1.1-1.7l0.3,0.2
			l-0.4,0.8l1.2,0.8c0.5-0.7,0.9-1.4,1.4-2l-1.9-1.3l-0.8,0.8L24.5,84.8z"/>
		<path class="st3" d="M14.6,80.4l0.6,0.5l5-2.7l0.2,0.2l-2.4,4.3l4.5-2.2l0.2,0.2l-3,4.9l0.5,0.6L20,86.5l-1.6-1.7l0.2-0.2l0.6,0.5
			l2.4-3.8l-4.1,1.9l0.5,0.7l-0.2,0.2l-1.5-1.7l0.2-0.2l0.7,0.6l2.3-4l-4,2.1l0.5,0.7L15.8,82l-1.4-1.4L14.6,80.4z"/>
		<path class="st3" d="M65,88.8l-0.1-0.3l2.1-1l0.1,0.3l-0.8,0.5l1.2,1.2l1.9-0.9l-0.2-1.6l-0.8,0.3l-0.1-0.3l1.7-0.8l0.1,0.3
			l-0.6,0.4l0.7,5.8l-0.4,0.2l-4.1-4.2L65,88.8z M67.7,89.7l2,2.1l-0.4-2.9L67.7,89.7z"/>
		<path class="st3" d="M59.4,95.9l0.7-0.3l-1.4-5.3l0.3-0.1l4.7,3.9l-1.1-4.3l-0.9,0.1l-0.1-0.3l2-0.5l0.1,0.3l-0.7,0.3l1.2,4.8
			l0.1,0.1l0.7-0.1l0.1,0.3l-1.2,0.3l-4.4-3.7l1.1,4.1l0.9-0.1l0.1,0.3l-2,0.5L59.4,95.9z"/>
		<path class="st3" d="M54.1,96.9c-1.7,0.1-2.9-0.9-2.9-2.8c-0.1-1.8,1.1-3,2.8-3l2.3-0.1l0,0.3l-0.8,0.1c0,0.8,0,1.6,0.1,2.5l0,0.3
			c0,0.8,0.1,1.6,0.1,2.3l0.8,0.1l0,0.3L54.1,96.9z M54,91.4c-1.5,0.1-2.2,1.1-2.1,2.7c0.1,1.7,0.9,2.6,2.3,2.5l0.8,0
			c0-0.8,0-1.6-0.1-2.4l0-0.3c0-0.9-0.1-1.7-0.1-2.5L54,91.4z"/>
		<path class="st3" d="M91.5,37.1l-1.2,0.4c-0.5-0.4-0.8-0.9-1-1.5c-0.6-1.6,0.2-3.2,1.8-3.8c1.7-0.6,3.3,0.1,3.9,1.7
			c0.2,0.5,0.3,1.1,0.2,1.7L94,36.1l-0.2-0.4l0.9-0.6c0.1-0.4,0-0.7-0.1-1C94.2,33,93,32.4,91.4,33c-1.6,0.6-2.2,1.8-1.8,3
			c0.1,0.3,0.3,0.7,0.6,1l1.1-0.2L91.5,37.1z"/>
		<path class="st3" d="M93,43.9l-1.6,0.2L90.6,40l0.3-0.1l0.2,0.8c0.8-0.1,1.5-0.3,2.3-0.4l0.4-0.1c0.8-0.1,1.5-0.3,2.3-0.5
			l-0.1-0.8l0.3-0.1l0.4,2.3l-0.3,0.1l-0.2-0.8c-0.8,0.1-1.5,0.3-2.3,0.4L93.4,41c-0.6,0.1-1.4,0.3-2.1,0.4l0.4,2.1l1.3,0L93,43.9z"
			/>
		<path class="st3" d="M92.2,51.9l-0.3,0l-0.1-2.3l0.3,0l0.1,0.9l1.6-0.6l-0.1-2.1l-1.6-0.5l-0.1,0.8l-0.3,0l0-1.9l0.3,0l0.1,0.7
			l5.5,1.7l0,0.4l-5.5,2L92.2,51.9z M94.1,49.8l2.7-1L94.1,48L94.1,49.8z"/>
		<path class="st3" d="M94.7,55.5c-0.6,1.1-1.2,1.5-2,1.4c-1-0.1-1.5-1.1-1.4-2.2c0.1-0.7,0.4-1.2,0.7-1.6l1.2,0.2l-0.1,0.4
			l-1.1,0.1c-0.2,0.3-0.3,0.5-0.4,0.9c-0.1,0.9,0.2,1.5,0.9,1.6c0.6,0.1,0.9-0.2,1.3-1l0.2-0.3c0.5-0.8,1-1.3,1.9-1.2
			c1,0.1,1.4,1,1.3,2.1c-0.1,0.6-0.3,1-0.6,1.3l-1.1-0.2l0.1-0.4l1-0.1c0.2-0.2,0.3-0.4,0.3-0.7c0.1-0.7-0.2-1.3-0.9-1.4
			c-0.6-0.1-1,0.3-1.3,0.9L94.7,55.5z"/>
		<path class="st3" d="M93.3,61.8c-0.8,1-1.3,1.3-2.1,1.1c-1-0.3-1.3-1.3-1-2.4c0.2-0.6,0.6-1.2,0.9-1.5l1.1,0.4l-0.1,0.4L91,59.7
			c-0.3,0.2-0.4,0.5-0.5,0.9c-0.2,0.8,0,1.5,0.7,1.7c0.6,0.2,0.9-0.1,1.5-0.8l0.2-0.3c0.6-0.8,1.2-1.2,2-1c1,0.3,1.3,1.2,1,2.2
			c-0.2,0.6-0.4,0.9-0.8,1.2l-1.1-0.3l0.1-0.4l1,0.1c0.2-0.2,0.3-0.4,0.4-0.7c0.2-0.7,0-1.3-0.7-1.5c-0.6-0.2-1,0.1-1.4,0.7
			L93.3,61.8z"/>
		<path class="st3" d="M93.3,67.8c-0.7-0.3-1.4-0.6-2.1-0.9l-0.4-0.2c-0.7-0.3-1.4-0.6-2.1-0.9l-0.4,0.7l-0.3-0.1l0.9-2.2l0.3,0.1
			l-0.2,0.8c0.7,0.3,1.4,0.6,2.1,0.9l0.4,0.2c0.7,0.3,1.4,0.6,2.1,0.9l0.4-0.7l0.3,0.1l-0.9,2.2L93,68.6L93.3,67.8z"/>
		<path class="st3" d="M85.9,72.8l-1.1-0.7c0-0.6,0.2-1.2,0.5-1.7c0.9-1.5,2.6-1.9,4.1-0.9c1.5,0.9,2,2.6,1.1,4.1
			c-0.3,0.4-0.6,0.9-1.2,1.2l-1.1-0.6l0.2-0.4l1,0.4c0.3-0.2,0.5-0.4,0.7-0.7c0.7-1.1,0.3-2.4-1.2-3.3c-1.5-0.9-2.8-0.6-3.4,0.5
			c-0.2,0.3-0.3,0.7-0.4,1.1l0.8,0.7L85.9,72.8z"/>
		<path class="st3" d="M85,78c-1.1,0.6-1.8,0.6-2.4,0.1c-0.8-0.7-0.7-1.7,0-2.6c0.4-0.5,1-0.8,1.4-1l0.9,0.8l-0.3,0.3l-0.9-0.5
			c-0.3,0.1-0.6,0.3-0.8,0.6c-0.6,0.7-0.6,1.4-0.1,1.8c0.4,0.4,0.9,0.3,1.7-0.1l0.3-0.2c0.9-0.5,1.6-0.6,2.2,0
			c0.8,0.6,0.7,1.6,0,2.5c-0.4,0.5-0.8,0.7-1.3,0.8L85,79.7l0.3-0.3l0.9,0.5c0.3-0.1,0.5-0.2,0.6-0.5c0.5-0.6,0.5-1.2,0-1.6
			c-0.4-0.4-1-0.3-1.6,0L85,78z"/>
		<g>
			<path class="st3" d="M5.6,64.8c0.7-0.2,1.5-0.5,2.2-0.7l0.4-0.1c0.7-0.2,1.5-0.5,2.2-0.8l-0.2-0.8l0.3-0.1l0.8,2.2L11,64.6
				l-0.4-0.8c-0.7,0.2-1.5,0.5-2.2,0.7L8,64.7c-0.7,0.3-1.5,0.5-2.2,0.8L6,66.3l-0.3,0.1L5,64.1l0.3-0.1L5.6,64.8z"/>
			<path class="st3" d="M7.4,55.5l1.2-0.2c0.4,0.5,0.6,1,0.7,1.6c0.3,1.7-0.7,3.1-2.5,3.4c-1.7,0.3-3.2-0.7-3.5-2.3
				c-0.1-0.5-0.1-1.1,0.1-1.7l1.2-0.3l0.1,0.4l-1,0.4c-0.1,0.4-0.1,0.7-0.1,1c0.2,1.2,1.4,2,3,1.7C8.5,59.3,9.2,58.2,9,57
				c-0.1-0.4-0.2-0.7-0.4-1l-1.1,0L7.4,55.5z"/>
			<path class="st3" d="M5.7,47.3c1.9,0,3.1,1.2,3.1,2.6c0,1.4-1.1,2.6-3,2.7c-1.9,0-3.1-1.3-3.1-2.6C2.6,48.6,3.7,47.3,5.7,47.3z
				 M8.4,49.9c0-1.2-1.3-1.8-2.7-1.8C4.3,48.1,3,48.7,3,50c0,1.3,1.3,1.8,2.7,1.8C7.1,51.8,8.4,51.2,8.4,49.9z"/>
			<path class="st3" d="M4.4,38.2l0,0.8l5.4,1l0,0.3l-5.5,2.6l4.4,0.8l0.3-0.9l0.3,0.1l-0.4,2l-0.3-0.1l0-0.8l-4.9-0.9l-0.1,0.1
				l-0.2,0.6l-0.3,0l0.2-1.2l5.2-2.4l-4.2-0.8L4,40.2l-0.3-0.1l0.4-2L4.4,38.2z"/>
			<path class="st3" d="M8.2,33.7c0.8-0.9,1.4-1.2,2.2-0.9c1,0.3,1.2,1.4,0.8,2.5c-0.2,0.6-0.6,1.1-1,1.4l-1.1-0.4l0.1-0.4l1.1,0.2
				c0.3-0.2,0.4-0.5,0.6-0.8c0.3-0.8,0.1-1.5-0.6-1.8c-0.5-0.2-0.9,0-1.5,0.7l-0.2,0.3c-0.6,0.7-1.3,1.1-2.1,0.8
				c-0.9-0.3-1.2-1.3-0.8-2.3c0.2-0.6,0.5-0.9,0.9-1.2l1,0.4l-0.1,0.4l-1-0.2C6.2,32.5,6.1,32.7,6,33c-0.2,0.7-0.1,1.3,0.5,1.5
				c0.5,0.2,1,0,1.5-0.5L8.2,33.7z"/>
		</g>
		<g>
			<path class="st3" d="M24.9,13c0.3,0.8,0.5,1.5,0.5,2.3l1.1,0.2l0.7-0.4l0.1,0.2c-0.2,0.2-0.3,0.3-0.4,0.4c-0.3,0.2-0.6,0.3-1,0.2
				l-0.6-0.1c-0.1,0.6-0.3,1.2-1,1.7c-0.9,0.6-1.9,0.5-2.4-0.3c-0.4-0.6-0.4-1.4,0.1-2.3l-0.1,0c-0.6-0.1-1-0.4-1.3-0.8
				c-0.4-0.6-0.2-1.3,0.4-1.8c0.7-0.5,1.3-0.3,1.7,0.2c0.4,0.5,0.3,1.1-0.2,2c0.3,0.1,0.6,0.1,1,0.2c0.5,0.1,1,0.2,1.5,0.3
				c0-0.7-0.2-1.3-0.5-2L24,13.5l-0.2-0.2l1.4-1l0.2,0.2L24.9,13z M21.9,14.4c0.1,0,0.3,0.1,0.4,0.1c0.3-0.6,0.4-1.2,0.1-1.6
				c-0.3-0.4-0.8-0.5-1.1-0.2c-0.4,0.3-0.5,0.8-0.2,1.2C21.1,14.1,21.3,14.3,21.9,14.4z M25,15.8c-0.5-0.1-1-0.2-1.4-0.3
				c-0.6-0.2-0.9-0.2-1.4-0.4c-0.3,0.7-0.2,1.3,0.1,1.7c0.4,0.5,1.2,0.8,1.9,0.3C24.7,16.7,25,16.3,25,15.8z"/>
			<path class="st3" d="M32.8,10.8l0.5,1.2c-0.4,0.5-0.8,0.9-1.4,1.1c-1.6,0.7-3.2,0.1-3.9-1.5c-0.8-1.6-0.2-3.3,1.3-4
				c0.5-0.2,1-0.4,1.7-0.3l0.6,1.1l-0.4,0.2l-0.6-0.9c-0.4,0-0.7,0.1-1,0.2c-1.1,0.5-1.6,1.8-0.9,3.4c0.7,1.6,2,2,3.1,1.5
				c0.3-0.2,0.6-0.4,0.9-0.7L32.4,11L32.8,10.8z"/>
			<path class="st3" d="M39,4.8c0.2,0.7,0.4,1.5,0.6,2.3l0.1,0.4c0.2,0.7,0.4,1.5,0.6,2.2l0.8-0.1l0.1,0.3L39,10.5l-0.1-0.3l0.8-0.3
				c-0.2-0.7-0.4-1.5-0.6-2.4l-2.9,0.8c0.2,0.9,0.4,1.7,0.7,2.4l0.8-0.1l0.1,0.3l-2.3,0.6l-0.1-0.3l0.8-0.3
				c-0.2-0.7-0.4-1.5-0.6-2.2l-0.1-0.4c-0.2-0.7-0.4-1.5-0.6-2.2L34,6.1l-0.1-0.3l2.3-0.6l0.1,0.3l-0.8,0.3c0.2,0.7,0.4,1.5,0.6,2.2
				L39,7.2c-0.2-0.7-0.4-1.5-0.6-2.2l-0.8,0.1l-0.1-0.3l2.3-0.6l0.1,0.3L39,4.8z"/>
			<path class="st3" d="M48.6,8.8l0,0.3l-2.3,0.2l0-0.3l0.9-0.2l-0.7-1.5l-2,0.2l-0.4,1.6l0.8,0l0,0.3l-1.9,0.2l0-0.3l0.7-0.2
				l1.4-5.6l0.4,0l2.3,5.3L48.6,8.8z M46.4,7l-1.1-2.7l-0.7,2.8L46.4,7z"/>
			<path class="st3" d="M53.4,3.5c1.7,0.1,2.7,1.3,2.6,3.1c-0.2,1.8-1.5,2.8-3.2,2.7l-2.3-0.2l0-0.3l0.8,0c0.1-0.8,0.2-1.5,0.2-2.4
				l0-0.3c0.1-0.8,0.1-1.6,0.2-2.3l-0.8-0.2l0-0.3L53.4,3.5z M52.7,9c1.5,0.1,2.3-0.8,2.5-2.4c0.1-1.7-0.6-2.6-1.9-2.8l-0.8-0.1
				c-0.1,0.8-0.2,1.6-0.2,2.4l0,0.3C52.1,7.3,52,8.1,52,8.9L52.7,9z"/>
			<path class="st3" d="M62.4,9.5L62,11l-4.3-1.1l0.1-0.3l0.8,0.1C58.8,9,59,8.3,59.2,7.5l0.1-0.4c0.2-0.8,0.4-1.5,0.5-2.3L59,4.5
				l0.1-0.3l4.2,1l-0.3,1.5l-0.4-0.1l0.1-1.2L60.5,5c-0.2,0.7-0.4,1.5-0.6,2.3l1.4,0.3l0.3-0.8l0.3,0.1l-0.5,2l-0.3-0.1l0.1-0.8
				l-1.4-0.3c-0.2,0.9-0.4,1.6-0.6,2.4l2.3,0.6L62,9.4L62.4,9.5z"/>
			<path class="st3" d="M71.9,9.2c-0.3,0.7-0.7,1.4-1,2.1l-0.2,0.4c-0.3,0.7-0.6,1.4-1,2.1l0.7,0.4l-0.1,0.3l-2.1-1l0.1-0.3l0.7,0.3
				c0.3-0.7,0.7-1.4,1-2.1l1-2.2l-4,3.8l-0.3-0.1l0.2-5.5c-0.3,0.7-0.7,1.7-0.7,1.7l-1.2,2.6l0.7,0.4l-0.1,0.3L64,11.6l0.1-0.3
				l0.7,0.2L67,6.9l-0.7-0.4l0.1-0.3l1.4,0.6l-0.2,5.4l3.9-3.7l1.4,0.7l-0.1,0.3L71.9,9.2z"/>
			<path class="st3" d="M75.7,15.4C75.3,16,75,16.5,74.6,17l0.7,0.6l-0.2,0.2l-2.1-1.5l0.2-0.2l0.8,0.5c0.3-0.5,0.7-0.9,1.1-1.6
				l0.6-3.5L75.2,11l0.2-0.2l1.9,1.3l-0.2,0.2L76.3,12l-0.5,3l2.7-1.5l-0.6-0.6l0.2-0.2l1.6,1.2l-0.2,0.2l-0.7-0.4L75.7,15.4z"/>
		</g>
	</g>
</g>
</svg>
