<?xml version="1.0" encoding="utf-8"?>
<!-- Generator: Adobe Illustrator 24.2.3, SVG Export Plug-In . SVG Version: 6.00 Build 0)  -->
<svg version="1.1" id="圖層_1" xmlns="http://www.w3.org/2000/svg" xmlns:xlink="http://www.w3.org/1999/xlink" x="0px" y="0px"
	 viewBox="0 0 548 43.6" style="enable-background:new 0 0 548 43.6;" xml:space="preserve">
<style type="text/css">
	.st0{display:none;}
	.st1{display:inline;}
	.st2{fill:#353535;}
	.st3{display:inline;fill:#F3F4F4;}
	.st4{fill:#C77334;}
</style>
<g id="圖層_1_1_" className="st0">
	<g transform="translate(0.000000,1230.000000) scale(0.100000,-0.100000)" className="st1">
		<path className="st2" d="M1567.2,16796.1c-2.3-2.3-57.6-7.7-123-12.3c-810-57.6-1547.7-331.2-2177.1-805.4
			c-286.6-216.7-577.9-510.3-797.7-805.4c-440.2-591.6-714.6-1315.5-774.5-2044c-4.6-54.6-12.3-141.4-16.9-192.1
			c-13.8-139.9-1.5-395.8,32.3-664.7c86.1-693.2,348.1-1349.4,760-1902c123-166,225.9-284.3,384.2-441.9
			c326.6-326.6,666.3-571,1072-768.5c434.2-211.3,844.6-328.1,1367.9-389.6c167.5-19.2,634-19.2,806.9,0
			c314.3,35.3,573.3,89.9,851.5,179.1c379.6,122.2,807.7,339.7,1114.3,565.6c49.2,36.1,53,37.7,69.2,26.9
			c9.2-6.1,285.1-260.5,613.2-564.1C6036.7,7786.5,6318.7,7526,6357.1,7497.6c53.8-41.5,164.5-93.8,239.8-114.5
			c50.7-13.8,82.2-16.9,180.6-16.9c137.6,0,198.3,13.1,305.9,64.6c81.5,39.2,123.7,67.6,189,129.9c65.3,63,110.7,125.3,150.6,209
			c50.7,106.8,63.8,169.1,64.6,302.8c0.8,136.8-13.8,204.4-68.4,315.1c-67.6,137.6,89.1-13.1-1769.8,1705.2
			c-300.5,278.2-547.2,510.3-547.2,514.9c0,4.6,27.7,55.3,62.2,112.2c78.4,131.4,206.7,392.7,266.7,541.8
			c292.8,733.1,366.6,1530.8,212.1,2301.6c-222.9,1116.6-891.4,2066.4-1872,2659.7c-136.8,83-426.5,225.2-582.5,285.9
			c-462.6,181.4-936.8,274.3-1467.8,287.4C1638.7,16798.4,1569.5,16798.4,1567.2,16796.1z M2028.3,15349.8
			c477.2-64.6,917.6-252.1,1287.2-547.2c46.9-36.9,134.5-116,195.2-175.2c353.5-344.3,593.3-756.9,710.8-1221.9
			c55.3-218.2,76.8-401.9,76.1-641.7c-0.8-378.9-73.8-717.8-228.2-1058.2c-186-411.1-496.4-786.9-874.5-1057.4
			c-325.8-232.8-712.4-386.5-1135.8-452.6c-98.4-15.4-140.6-16.9-357.3-16.9c-216.7,0-259,1.5-357.3,16.9
			c-297.4,46.9-521,116-780,243.6c-170.6,83.8-282.8,152.2-421.9,256.7c-567.9,428-926.8,1043.6-1022.8,1752.9
			c-17.7,126.8-23.1,389.6-12.3,523.3c85.3,1009.8,735.4,1872,1683.7,2233.2c212.9,80.7,441.9,132.2,710.8,159.1
			C1581.1,15372.1,1936.9,15362.9,2028.3,15349.8z"/>
	</g>
</g>
<g id="圖層_2_1_" className="st0">
	<path id="Path_667" className="st3" d="M258,310.2l-45.3-41.5C51.9,121.9-54.3,25.1-54.3-93.7c-1.2-94.2,74.1-171.6,168.4-172.8
		c1.1,0,2.3,0,3.4,0c54.2,0.5,105.4,24.4,140.5,65.7c35.1-41.3,86.3-65.2,140.5-65.7c94.2-0.6,171.1,75.2,171.8,169.5
		c0,1.1,0,2.3,0,3.4c0,118.8-106.2,215.6-267,362.7L258,310.2z"/>
</g>
<path id="Polygon_5" className="st4" d="M162.8,0l6,16.2l18,0.4l-14.3,10.5l5.1,16.5l-14.8-9.7L148,43.6l5.1-16.5l-14.3-10.5l18-0.4
	L162.8,0z"/>
<path id="Polygon_5-2" className="st4" d="M218.4,0l5.7,16.2l17.2,0.4l-13.6,10.5l4.9,16.5l-14.1-9.7l-14.1,9.7l4.9-16.5l-13.6-10.5
	l17.2-0.4L218.4,0z"/>
<path id="Polygon_5-3" className="st4" d="M274,0l6,16.2l18,0.4l-14.3,10.5l5.1,16.5L274,33.8l-14.8,9.7l5.1-16.5L250,16.7l18-0.4L274,0
	z"/>
<path id="Polygon_5-4" className="st4" d="M330.7,0l6,16.2l18,0.4l-14.3,10.5l5.1,16.5l-14.8-9.7l-14.8,9.7l5.1-16.5l-14.3-10.5l18-0.4
	L330.7,0z"/>
<path id="Polygon_5-5" className="st4" d="M385.2,0l6,16.2l18,0.4l-14.3,10.5l5.1,16.5l-14.8-9.7l-14.8,9.7l5.1-16.5l-14.3-10.5l18-0.4
	L385.2,0z"/>
</svg>
